<?xml version="1.0" encoding="utf-8"?>
<!-- Generator: Adobe Illustrator 25.0.0, SVG Export Plug-In . SVG Version: 6.00 Build 0)  -->
<svg version="1.1" id="Layer_1" xmlns="http://www.w3.org/2000/svg" xmlns:xlink="http://www.w3.org/1999/xlink" x="0px" y="0px"
	 viewBox="0 0 826.4 71.1" enable-background="new 0 0 826.4 71.1" xml:space="preserve">
<g>
	<g>
		<path fill="#FFFFFF" d="M0,71.1V1.6h51v15.6h-33v10.8h32.3v15.6H17.9v27.4H0z"/>
		<path fill="#FFFFFF" d="M105.7,71.1L94,47.8h-9.2v23.3H66.9V1.6h34.8c15.4,0,24.2,10.2,24.2,23.1c0,12.1-7.3,18.6-13.9,20.8
			l14.2,25.5H105.7z M107.7,24.7c0-4.8-3.9-7.4-8.7-7.4H84.8v14.9H99C103.8,32.2,107.7,29.6,107.7,24.7z"/>
		<path fill="#FFFFFF" d="M142.1,71.1V1.6H160v69.5H142.1z"/>
		<path fill="#FFFFFF" d="M178.7,71.1V1.6h29.2c21.9,0,37.6,13.1,37.6,34.7S229.8,71.1,208,71.1H178.7z M227.2,36.3
			c0-10.7-6.5-19.1-19.2-19.1h-11.4v38.3h11.3C220.1,55.5,227.2,46.7,227.2,36.3z"/>
		<path fill="#FFFFFF" d="M304.7,71.1l-3.4-10h-27.4l-3.4,10H250l26.2-69.5h22.6L325,71.1H304.7z M287.6,19.3l-8.9,26.2h17.6
			L287.6,19.3z"/>
		<path fill="#FFFFFF" d="M348.2,71.1v-28L321.9,1.6h20.2l15.1,25.6l14.9-25.6h20.3l-26.3,41.5v28H348.2z"/>
	</g>
	<g>
		<path fill="#FFFFFF" d="M510.3,71.1V1.6h51v15.6h-33v10.8h32.3v15.6h-32.3v27.4H510.3z"/>
		<path fill="#FFFFFF" d="M576.9,71.1V1.6h17.9v53.9h27.9v15.6H576.9z"/>
		<path fill="#FFFFFF" d="M638.2,71.1V1.6h51v15.6h-33v10.8h32.3v15.6h-32.3v11.8h33v15.6H638.2z"/>
		<path fill="#FFFFFF" d="M705.9,71.1V1.6h51v15.6h-33v10.8h32.3v15.6h-32.3v11.8h33v15.6H705.9z"/>
		<path fill="#FFFFFF" d="M789,71.1V17.3h-19.5V1.6h56.8v15.6H807v53.9H789z"/>
	</g>
	<path fill="#EA0000" d="M471,21.2v29.5l-26.6-26.6c0.9-2.1,1.4-4.4,1.4-6.9c0-9.5-7.7-17.2-17.2-17.2s-17.2,7.7-17.2,17.2
		s7.7,17.2,17.2,17.2c2.7,0,5.2-0.6,7.4-1.7l1,1l-8.4,8.4l8.5,8.5l8.4-8.4l16.9,16.9h-29.5v12h50v-50H471z M428.7,22.4
		c-2.9,0-5.2-2.3-5.2-5.2c0-2.9,2.3-5.2,5.2-5.2s5.2,2.3,5.2,5.2C433.9,20.1,431.6,22.4,428.7,22.4z"/>
</g>
<text transform="matrix(1 0 0 1 2.441406e-04 -89.3647)" font-family="'ProximaNova-Extrabld'" font-size="104.228px" letter-spacing="6">FRIDAY</text>
<text transform="matrix(1 0 0 1 510.3451 -89.3647)" font-family="'ProximaNova-Extrabld'" font-size="104.228px" letter-spacing="6">FLEET</text>
<path fill="#C69C6D" d="M477.3-139.3v29.5l-26.6-26.6c0.9-2.1,1.4-4.4,1.4-6.9c0-9.5-7.7-17.2-17.2-17.2s-17.2,7.7-17.2,17.2
	s7.7,17.2,17.2,17.2c2.7,0,5.2-0.6,7.4-1.7l1,1l-8.4,8.4l8.5,8.5l8.4-8.4l16.9,16.9h-29.5v12h50v-50H477.3z M435-138.1
	c-2.9,0-5.2-2.3-5.2-5.2c0-2.9,2.3-5.2,5.2-5.2s5.2,2.3,5.2,5.2C440.2-140.4,437.8-138.1,435-138.1z"/>
</svg>
