<?xml version="1.0" encoding="utf-8"?>
<!-- Generator: Adobe Illustrator 25.0.1, SVG Export Plug-In . SVG Version: 6.00 Build 0)  -->
<svg version="1.1" id="Layer_1" xmlns="http://www.w3.org/2000/svg" xmlns:xlink="http://www.w3.org/1999/xlink" x="0px" y="0px"
	 viewBox="0 0 826.4 135.4" style="enable-background:new 0 0 826.4 135.4;" xml:space="preserve">
<style type="text/css">
	.st0{fill:#FFFFFF;}
	.st1{fill:#EA0000;}
	.st2{fill:#C69C6D;}
</style>
<g>
	<g>
		<path class="st0" d="M0,71.1V1.6h51v15.6H18V28h32.3v15.6H17.9V71L0,71.1L0,71.1z"/>
		<path class="st0" d="M105.7,71.1L94,47.8h-9.2v23.3H66.9V1.6h34.8c15.4,0,24.2,10.2,24.2,23.1c0,12.1-7.3,18.6-13.9,20.8L126.2,71
			L105.7,71.1L105.7,71.1z M107.7,24.7c0-4.8-3.9-7.4-8.7-7.4H84.8v14.9H99C103.8,32.2,107.7,29.6,107.7,24.7z"/>
		<path class="st0" d="M142.1,71.1V1.6H160v69.5H142.1z"/>
		<path class="st0" d="M178.7,71.1V1.6h29.2c21.9,0,37.6,13.1,37.6,34.7S229.8,71.1,208,71.1H178.7z M227.2,36.3
			c0-10.7-6.5-19.1-19.2-19.1h-11.4v38.3h11.3C220.1,55.5,227.2,46.7,227.2,36.3z"/>
		<path class="st0" d="M304.7,71.1l-3.4-10h-27.4l-3.4,10H250l26.2-69.5h22.6L325,71.1H304.7z M287.6,19.3l-8.9,26.2h17.6
			L287.6,19.3z"/>
		<path class="st0" d="M348.2,71.1v-28L321.9,1.6h20.2l15.1,25.6l14.9-25.6h20.3l-26.3,41.5v28H348.2z"/>
	</g>
	<g>
		<path class="st0" d="M510.3,71.1V1.6h51v15.6h-33V28h32.3v15.6h-32.3V71L510.3,71.1L510.3,71.1z"/>
		<path class="st0" d="M576.9,71.1V1.6h17.9v53.9h27.9v15.6H576.9z"/>
		<path class="st0" d="M638.2,71.1V1.6h51v15.6h-33V28h32.3v15.6h-32.3v11.8h33V71L638.2,71.1L638.2,71.1z"/>
		<path class="st0" d="M705.9,71.1V1.6h51v15.6h-33V28h32.3v15.6h-32.3v11.8h33V71L705.9,71.1L705.9,71.1z"/>
		<path class="st0" d="M789,71.1V17.3h-19.5V1.6h56.8v15.6H807v53.9C807,71.1,789,71.1,789,71.1z"/>
	</g>
	<path class="st1" d="M471,21.2v29.5l-26.6-26.6c0.9-2.1,1.4-4.4,1.4-6.9c0-9.5-7.7-17.2-17.2-17.2s-17.2,7.7-17.2,17.2
		s7.7,17.2,17.2,17.2c2.7,0,5.2-0.6,7.4-1.7l1,1l-8.4,8.4l8.5,8.5l8.4-8.4l16.9,16.9h-29.5v12h50v-50H471V21.2z M428.7,22.4
		c-2.9,0-5.2-2.3-5.2-5.2s2.3-5.2,5.2-5.2s5.2,2.3,5.2,5.2C433.9,20.1,431.6,22.4,428.7,22.4z"/>
</g>
<text transform="matrix(1 0 0 1 2.441406e-04 -89.3647)" style="font-family:'ProximaNova-Extrabld'; font-size:104.228px; letter-spacing:5;">FRIDAY</text>
<g>
	<path class="st0" d="M1.9,128.2l4.5-6.2c3.1,3.3,8,6.3,14.3,6.3c6.5,0,9-3.2,9-6.3c0-9.5-26.4-3.6-26.4-20.3
		c0-7.5,6.5-13.3,16.5-13.3c7,0,12.8,2.3,16.9,6.4l-4.5,5.9c-3.6-3.6-8.4-5.2-13.2-5.2c-4.6,0-7.6,2.3-7.6,5.6
		c0,8.5,26.4,3.3,26.4,20.1c0,7.5-5.4,14.1-17.5,14.1C12,135.4,6,132.5,1.9,128.2z"/>
	<path class="st0" d="M92.1,134.6v-19.9H68.5v19.9h-8V89.3h8v18.5h23.6V89.3h8v45.4H92.1z"/>
	<path class="st0" d="M123.1,112c0-13.5,9.6-23.5,23.2-23.5c13.5,0,23.2,9.9,23.2,23.5s-9.7,23.5-23.2,23.5
		C132.7,135.4,123.1,125.5,123.1,112z M161.4,112c0-9.4-5.9-16.4-15-16.4c-9.2,0-15,7-15,16.4c0,9.3,5.8,16.4,15,16.4
		C155.4,128.4,161.4,121.3,161.4,112z"/>
	<path class="st0" d="M218.4,134.6l-10-16.9h-8v16.9h-8V89.3h19.9c9,0,14.9,5.8,14.9,14.2c0,8-5.3,12.4-10.8,13.3l11.2,17.8H218.4z
		 M219.2,103.4c0-4.4-3.3-7.1-7.8-7.1h-10.9v14.4h10.9C215.9,110.7,219.2,107.8,219.2,103.4z"/>
	<path class="st0" d="M260.8,134.6V96.3H247v-7h35.4v7h-13.7v38.3H260.8z"/>
	<path class="st0" d="M301.3,128.2l4.5-6.2c3.1,3.3,8,6.3,14.3,6.3c6.5,0,9-3.2,9-6.3c0-9.5-26.4-3.6-26.4-20.3
		c0-7.5,6.5-13.3,16.5-13.3c7,0,12.8,2.3,16.9,6.4l-4.5,5.9c-3.6-3.6-8.4-5.2-13.2-5.2c-4.6,0-7.6,2.3-7.6,5.6
		c0,8.5,26.4,3.3,26.4,20.1c0,7.5-5.4,14.1-17.5,14.1C311.4,135.4,305.4,132.5,301.3,128.2z"/>
	<path class="st0" d="M360,134.6V89.3h31.1v7h-23.1V108h22.6v7h-22.6v12.6h23.1v7H360z"/>
	<path class="st0" d="M446.4,134.6l-3.3-8.8h-20.8l-3.3,8.8h-9l17.8-45.4h9.9l17.8,45.4H446.4z M432.7,97.2l-8.2,21.6h16.3
		L432.7,97.2z"/>
	<path class="st0" d="M521.8,134.6l-17.8-45.4h9l13.7,36.6l13.7-36.6h9l-17.8,45.4H521.8z"/>
	<path class="st0" d="M598.2,134.6l-3.3-8.8h-20.8l-3.3,8.8h-9l17.8-45.4h9.9l17.8,45.4H598.2z M584.5,97.2l-8.2,21.6h16.3
		L584.5,97.2z"/>
	<path class="st0" d="M627,134.6V89.3h8v38.3h20v7H627z"/>
	<path class="st0" d="M675.6,116.7V89.3h8.1v27.2c0,7.2,4,11.9,11.6,11.9s11.6-4.7,11.6-11.9V89.3h8.1v27.4
		c0,11.2-6.5,18.8-19.7,18.8C682.1,135.4,675.6,127.9,675.6,116.7z"/>
	<path class="st0" d="M739.9,134.6V89.3H771v7h-23.1V108h22.6v7h-22.6v12.6H771v7H739.9z"/>
	<path class="st0" d="M791.6,128.2l4.5-6.2c3.1,3.3,8,6.3,14.3,6.3c6.5,0,9-3.2,9-6.3c0-9.5-26.4-3.6-26.4-20.3
		c0-7.5,6.5-13.3,16.5-13.3c7,0,12.8,2.3,16.9,6.4l-4.5,5.9c-3.6-3.6-8.4-5.2-13.2-5.2c-4.6,0-7.6,2.3-7.6,5.6
		c0,8.5,26.4,3.3,26.4,20.1c0,7.5-5.4,14.1-17.5,14.1C801.7,135.4,795.7,132.5,791.6,128.2z"/>
</g>
<text transform="matrix(1 0 0 1 510.3451 -89.3647)" style="font-family:'ProximaNova-Extrabld'; font-size:104.228px; letter-spacing:5;">FLEET</text>
<path class="st2" d="M477.3-139.3v29.5l-26.6-26.6c0.9-2.1,1.4-4.4,1.4-6.9c0-9.5-7.7-17.2-17.2-17.2s-17.2,7.7-17.2,17.2
	s7.7,17.2,17.2,17.2c2.7,0,5.2-0.6,7.4-1.7l1,1l-8.4,8.4l8.5,8.5l8.4-8.4l16.9,16.9h-29.5v12h50v-50L477.3-139.3L477.3-139.3z
	 M435-138.1c-2.9,0-5.2-2.3-5.2-5.2s2.3-5.2,5.2-5.2s5.2,2.3,5.2,5.2C440.2-140.4,437.8-138.1,435-138.1z"/>
</svg>
