<?xml version="1.0"?>
<svg xmlns="http://www.w3.org/2000/svg" xmlns:xlink="http://www.w3.org/1999/xlink" xmlns:svgjs="http://svgjs.com/svgjs" version="1.1" width="512" height="512" x="0" y="0" viewBox="0 0 512 512" style="enable-background:new 0 0 512 512" xml:space="preserve"><g><g xmlns="http://www.w3.org/2000/svg" id="_10_Location" data-name="10 Location"><path d="m410 512h-308a102.12 102.12 0 0 1 -102-102v-308a102.12 102.12 0 0 1 102-102h308a102.12 102.12 0 0 1 102 102v308a102.12 102.12 0 0 1 -102 102zm-308-472a62.07 62.07 0 0 0 -62 62v308a62.07 62.07 0 0 0 62 62h308a62.07 62.07 0 0 0 62-62v-308a62.07 62.07 0 0 0 -62-62z" fill="#ffc619" data-original="#000000" style=""/><path d="m367.79 276h-223.58a20 20 0 0 1 0-40h223.58a20 20 0 0 1 0 40z" fill="#ffc619" data-original="#000000" style=""/><path d="m325.5 348.25a20 20 0 0 1 -14.15-34.14l58.11-58.11-58.11-58.11a20 20 0 1 1 28.29-28.28l64.17 64.17a31.46 31.46 0 0 1 0 44.44l-64.17 64.17a19.92 19.92 0 0 1 -14.14 5.86z" fill="#ffc619" data-original="#000000" style=""/><path d="m186.5 348.25a19.92 19.92 0 0 1 -14.14-5.86l-64.17-64.17a31.46 31.46 0 0 1 0-44.44l64.17-64.17a20 20 0 0 1 28.29 28.28l-58.11 58.11 58.11 58.11a20 20 0 0 1 -14.15 34.14z" fill="#ffc619" data-original="#000000" style=""/></g></g></svg>
