<?xml version="1.0" encoding="utf-8"?>
<!-- Generator: Adobe Illustrator 25.0.1, SVG Export Plug-In . SVG Version: 6.00 Build 0)  -->
<svg version="1.1" id="Layer_1" xmlns:svgjs="http://svgjs.com/svgjs"
	 xmlns="http://www.w3.org/2000/svg" xmlns:xlink="http://www.w3.org/1999/xlink" x="0px" y="0px" viewBox="0 0 512 512"
	 style="enable-background:new 0 0 512 512;" xml:space="preserve">
<style type="text/css">
	.st0{fill:#FFC619;}
	.st1{fill:#FFFFFF;}
</style>
<g>
	<g id="_10_Location">
		<path class="st0" d="M410,512H102C45.7,511.9,0.1,466.3,0,410V102C0.1,45.7,45.7,0.1,102,0h308c56.3,0.1,101.9,45.7,102,102v308
			C511.9,466.3,466.3,511.9,410,512z"/>
		<path class="st1" d="M403.8,233.8l-64.2-64.2c-7.8-7.8-20.5-7.8-28.3,0c-7.8,7.8-7.8,20.5,0,28.3l38.1,38.1H162.5l38.1-38.1
			c7.8-7.8,7.8-20.5,0-28.3c-7.8-7.8-20.5-7.8-28.3,0l-64.2,64.2c-12.3,12.3-12.3,32.2,0,44.4l64.2,64.2c3.7,3.8,8.8,5.9,14.1,5.9v0
			c5.3,0,10.4-2.1,14.1-5.9c7.8-7.8,7.8-20.5,0-28.3L162.5,276h186.9l-38.1,38.1c-3.8,3.8-5.9,8.8-5.9,14.1c0,11,9,20,20,20l0,0
			c5.3,0,10.4-2.1,14.1-5.9l64.2-64.2C416.1,265.9,416.1,246.1,403.8,233.8z"/>
	</g>
</g>
</svg>
