<?xml version="1.0" encoding="utf-8"?>
<!-- Generator: Adobe Illustrator 25.0.0, SVG Export Plug-In . SVG Version: 6.00 Build 0)  -->
<svg version="1.1" id="Layer_1" xmlns:svgjs="http://svgjs.com/svgjs"
	 xmlns="http://www.w3.org/2000/svg" xmlns:xlink="http://www.w3.org/1999/xlink" x="0px" y="0px" viewBox="0 0 512 512"
	 enable-background="new 0 0 512 512" xml:space="preserve">
<g>
	<g>
		<g>
			<path fill="#FFFFFF" d="M256,0C114.8,0,0,114.8,0,256s114.8,256,256,256s256-114.8,256-256S397.2,0,256,0z M256,462.5
				c-113.8,0-206.5-92.6-206.5-206.5S142.2,49.5,256,49.5S462.5,142.2,462.5,256S369.8,462.5,256,462.5z"/>
		</g>
	</g>
</g>
<g>
	<g>
		<g>
			<path fill="#FFFFFF" d="M256,77.1c-98.7,0-178.9,80.3-178.9,178.9S157.3,434.9,256,434.9S434.9,354.7,434.9,256
				S354.7,77.1,256,77.1z"/>
		</g>
	</g>
</g>
</svg>
