<?xml version="1.0"?>
<svg xmlns="http://www.w3.org/2000/svg" xmlns:xlink="http://www.w3.org/1999/xlink" xmlns:svgjs="http://svgjs.com/svgjs" version="1.1" width="512" height="512" x="0" y="0" viewBox="0 0 512 512" style="enable-background:new 0 0 512 512" xml:space="preserve"><g><g xmlns="http://www.w3.org/2000/svg"><g><path d="m106.065 511.997h-106.065v-106.066s129.722-129.722 190.537-190.59c-18.984-58.748-3.847-123.378 39.863-167.088 64.334-64.333 169.013-64.333 233.345 0 31.117 31.117 48.255 72.552 48.255 116.672 0 44.121-17.138 85.555-48.255 116.672-40.271 40.272-97.654 56.551-153.489 43.549-4.559-1.062-9.096-2.324-13.564-3.773l-43.028 43.027-38.372 2.779-2.778 38.371-32.427 32.427-38.372 2.779-2.778 38.372zm-76.065-30h63.64l16.182-16.182 3.847-53.106 53.106-3.847 16.624-16.625 3.847-53.107 53.106-3.846 48.781-48.779 9.141 3.585c6.087 2.388 12.407 4.352 18.786 5.837 45.672 10.636 92.58-2.652 125.473-35.543 25.45-25.451 39.467-59.352 39.467-95.459s-14.017-70.008-39.468-95.459c-52.638-52.637-138.283-52.635-190.919 0-37.623 37.624-49.318 94.275-29.795 144.324l3.559 9.124s-171.719 171.785-195.377 195.444v63.639z" fill="#ffffff" data-original="#000000" style=""/></g><g><path d="m357.68 229.283c-19.206 0-38.412-7.311-53.033-21.932-14.166-14.166-21.967-33-21.967-53.033s7.801-38.868 21.967-53.033c29.241-29.241 76.823-29.244 106.066 0 29.241 29.242 29.242 76.823 0 106.065-14.621 14.623-33.827 21.933-53.033 21.933zm0-119.944c-11.525 0-23.046 4.385-31.82 13.159-8.499 8.5-13.18 19.8-13.18 31.82s4.681 23.32 13.18 31.82c17.547 17.545 46.094 17.545 63.641 0 17.545-17.546 17.545-46.094 0-63.64-8.773-8.771-20.299-13.159-31.821-13.159z" fill="#ffffff" data-original="#000000" style=""/></g></g></g></svg>
