<?xml version="1.0" encoding="utf-8"?>
<!-- Generator: Adobe Illustrator 25.0.0, SVG Export Plug-In . SVG Version: 6.00 Build 0)  -->
<svg version="1.1" id="Layer_2_1_" xmlns="http://www.w3.org/2000/svg" xmlns:xlink="http://www.w3.org/1999/xlink" x="0px" y="0px"
	 viewBox="0 0 386 386" style="enable-background:new 0 0 386 386;" xml:space="preserve">
<style type="text/css">
	.st0{fill:#FFFFFF;}
</style>
<path class="st0" d="M33,1H1v144h32V1z"/>
<path class="st0" d="M385,353H241v32h144V353z"/>
<path class="st0" d="M33,241H1v144h144v-32H33V241z"/>
<path class="st0" d="M209,66.1V1h-32v65.1c-57.9,7.4-103.5,53-110.9,110.9H1v32h65.1c7.4,57.9,53,103.5,110.9,110.9V385h32v-65.1
	c57.9-7.4,103.5-53,110.9-110.9H385v-32h-65.1C312.5,119.1,266.9,73.5,209,66.1z M287.6,209c-6.9,40.2-38.4,71.7-78.6,78.6V257h-32
	v30.6c-40.2-6.9-71.7-38.4-78.6-78.6H129v-32H98.4c6.9-40.2,38.4-71.7,78.6-78.6V129h32V98.4c40.2,6.9,71.7,38.4,78.6,78.6H257v32
	H287.6z"/>
</svg>
