<?xml version="1.0"?>
<svg xmlns="http://www.w3.org/2000/svg" xmlns:xlink="http://www.w3.org/1999/xlink" xmlns:svgjs="http://svgjs.com/svgjs" version="1.1" width="512" height="512" x="0" y="0" viewBox="0 0 512 512" style="enable-background:new 0 0 512 512" xml:space="preserve" class=""><g><g xmlns="http://www.w3.org/2000/svg" id="_02_User" data-name="02 User"><path d="m256 404.25a20 20 0 0 1 -20-20v-221.79a20 20 0 0 1 40 0v221.79a20 20 0 0 1 -20 20z" fill="#27e100" data-original="#000000" style=""/><path d="m351.69 237.16a19.94 19.94 0 0 1 -14.14-5.86l-81.55-81.55-81.55 81.55a20 20 0 0 1 -28.29-28.3l85-85a35.18 35.18 0 0 1 49.68 0l85 85a20 20 0 0 1 -14.15 34.14z" fill="#27e100" data-original="#000000" style=""/><path d="m410 512h-308a102.12 102.12 0 0 1 -102-102v-308a102.12 102.12 0 0 1 102-102h308a102.12 102.12 0 0 1 102 102v308a102.12 102.12 0 0 1 -102 102zm-308-472a62.07 62.07 0 0 0 -62 62v308a62.07 62.07 0 0 0 62 62h308a62.07 62.07 0 0 0 62-62v-308a62.07 62.07 0 0 0 -62-62z" fill="#27e100" data-original="#000000" style=""/></g></g></svg>
