<?xml version="1.0"?>
<svg xmlns="http://www.w3.org/2000/svg" xmlns:xlink="http://www.w3.org/1999/xlink" xmlns:svgjs="http://svgjs.com/svgjs" version="1.1" width="512" height="512" x="0" y="0" viewBox="0 0 512 512" style="enable-background:new 0 0 512 512" xml:space="preserve" class=""><g><g xmlns="http://www.w3.org/2000/svg" id="_04_Close" data-name="04 Close"><path d="m256 369.54a20 20 0 0 1 -20-20v-221.79a20 20 0 0 1 40 0v221.79a20 20 0 0 1 -20 20z" fill="#ff0000" data-original="#000000" style="" class=""/><path d="m256 404.25a34.89 34.89 0 0 1 -24.84-10.25l-85-85a20 20 0 0 1 28.29-28.28l81.55 81.53 81.55-81.55a20 20 0 0 1 28.29 28.3l-85 85a34.89 34.89 0 0 1 -24.84 10.25z" fill="#ff0000" data-original="#000000" style="" class=""/><path d="m410 512h-308a102.12 102.12 0 0 1 -102-102v-308a102.12 102.12 0 0 1 102-102h308a102.12 102.12 0 0 1 102 102v308a102.12 102.12 0 0 1 -102 102zm-308-472a62.07 62.07 0 0 0 -62 62v308a62.07 62.07 0 0 0 62 62h308a62.07 62.07 0 0 0 62-62v-308a62.07 62.07 0 0 0 -62-62z" fill="#ff0000" data-original="#000000" style="" class=""/></g></g></svg>
