<?xml version="1.0" encoding="utf-8"?>
<!-- Generator: Adobe Illustrator 25.0.0, SVG Export Plug-In . SVG Version: 6.00 Build 0)  -->
<svg version="1.1" id="Layer_1" xmlns:svgjs="http://svgjs.com/svgjs"
	 xmlns="http://www.w3.org/2000/svg" xmlns:xlink="http://www.w3.org/1999/xlink" x="0px" y="0px" viewBox="0 0 512 316"
	 enable-background="new 0 0 512 316" xml:space="preserve">
<g>
	<path fill="#FFFFFF" d="M171.6,208.7h36.8v-36.8h-36.8V208.7z"/>
	<path fill="#FFFFFF" d="M300.4,116.7h-36.8v36.8h36.8V116.7z"/>
	<path fill="#FFFFFF" d="M245.2,116.7h-36.8v36.8h36.8V116.7z"/>
	<path fill="#FFFFFF" d="M355.6,116.7h-36.8v36.8h36.8V116.7z"/>
	<path fill="#FFFFFF" d="M374,171.9h-36.8v36.8H374V171.9z"/>
	<path fill="#FFFFFF" d="M79.6,24.8V34H98v-9.2c0-5.1-4.1-9.2-9.2-9.2C83.7,15.6,79.6,19.7,79.6,24.8z"/>
	<path fill="#FFFFFF" d="M318.8,171.9H282v36.8h36.8V171.9z"/>
	<path fill="#FFFFFF" d="M263.6,171.9h-36.8v36.8h36.8V171.9z"/>
	<path fill="#FFFFFF" d="M460.6,293.7c1-3.8,2.2-7.6,3.6-11.4H16.6l5.5,18.4h436.7L460.6,293.7z"/>
	<path fill="#FFFFFF" d="M24.4,208.7h128.8v-55.2H24.4V208.7z M116.4,171.9h18.4v18.4h-18.4V171.9z M79.6,171.9H98v18.4H79.6V171.9z
		 M42.8,171.9h18.4v18.4H42.8V171.9z"/>
	<path fill="#FFFFFF" d="M512,208.7h-89.2l-25.3,16.9c-1.5,1-3.3,1.5-5.1,1.5H0l11,36.8h462c3-5.2,6.4-10.1,10.2-14.7l28.8-34.6
		V208.7z"/>
	<path fill="#FFFFFF" d="M116.4,135.1v-27.6c0-1.8,0.5-3.6,1.5-5.1l8.9-13.3h-76l8.9,13.3c1,1.5,1.5,3.3,1.5,5.1v27.6H116.4z"/>
	<path fill="#FFFFFF" d="M22.4,70.7h132.8l4.6-18.4h-142L22.4,70.7z"/>
</g>
</svg>
