<?xml version="1.0" encoding="utf-8"?>
<!-- Generator: Adobe Illustrator 25.0.0, SVG Export Plug-In . SVG Version: 6.00 Build 0)  -->
<svg version="1.1" id="Layer_1" xmlns:svgjs="http://svgjs.com/svgjs"
	 xmlns="http://www.w3.org/2000/svg" xmlns:xlink="http://www.w3.org/1999/xlink" x="0px" y="0px" viewBox="0 0 512 316"
	 style="enable-background:new 0 0 512 316;" xml:space="preserve">
<style type="text/css">
	.st0{fill:#808080;}
</style>
<g>
	<path class="st0" d="M503.5,196.4h-17.1v-17.1c0-4.7-3.8-8.5-8.5-8.5s-8.5,3.8-8.5,8.5v17.1h-17.1v-8.5c0-4.7-3.8-8.5-8.5-8.5
		s-8.5,3.8-8.5,8.5v8.5h-25.6c-1.7,0-3.3,0.5-4.7,1.4l-21,13.9v-41c0-4.7-3.8-8.5-8.5-8.5H367v-42.7c0-4.7-3.8-8.5-8.5-8.5H204.8
		c-4.7,0-8.5,3.8-8.5,8.5v42.7h-17.1v-8.5c0-4.7-3.8-8.5-8.5-8.5h-25.6v-23l13.1-19.6h12.5c3.9,0,7.3-2.7,8.3-6.5l8.5-34.1
		c0.6-2.5,0.1-5.3-1.5-7.3c-1.6-2.1-4.1-3.3-6.7-3.3H128V43c0-10.8-6.9-20.4-17.1-24V8.6c0-4.7-3.8-8.5-8.5-8.5s-8.5,3.8-8.5,8.5
		v10.1c-10.2,3.6-17,13.2-17.1,24v8.5H25.6c-2.6,0-5.1,1.2-6.7,3.3s-2.2,4.8-1.5,7.3l8.5,34.1c0.9,3.8,4.4,6.5,8.3,6.5h12.5l13,19.7
		v23H34.1c-4.7,0-8.5,3.8-8.5,8.5v59.7H8.5c-2.7,0-5.2,1.3-6.8,3.4c-1.6,2.2-2.1,5-1.3,7.5L26,309.8c1.1,3.6,4.4,6.1,8.2,6.1h418.1
		c3.9,0,7.3-2.7,8.3-6.5l3.2-13c3.2-12.7,9.1-24.5,17.5-34.5l28.7-34.4c1.3-1.5,2-3.5,2-5.5v-17.1
		C512,200.3,508.2,196.4,503.5,196.4z M366.9,179.3v34.1h-34.1v-34.1L366.9,179.3L366.9,179.3z M315.7,128.1h34.1v34.1h-34.1V128.1z
		 M315.7,179.3v34.1h-34.1v-34.1L315.7,179.3L315.7,179.3z M264.5,128.1h34.1v34.1h-34.1V128.1z M264.5,179.3v34.1h-34.1v-34.1
		L264.5,179.3L264.5,179.3z M213.3,128.1h34.1v34.1h-34.1L213.3,128.1L213.3,128.1z M179.2,179.3h34.1v34.1h-34.1L179.2,179.3
		L179.2,179.3z M93.9,42.8c0-4.7,3.8-8.5,8.5-8.5s8.5,3.8,8.5,8.5v8.5h-17V42.8z M40.8,85.4l-4.3-17.1h131.7L164,85.4H40.8z
		 M75.4,114.8l-8.2-12.3h70.5l-8.2,12.3c-0.9,1.4-1.4,3.1-1.4,4.7v25.6H76.8v-25.6C76.8,117.9,76.3,116.2,75.4,114.8z M42.7,162.3
		h119.5v51.2H42.7V162.3z M447.2,292.3l-1.6,6.5H40.5l-5.1-17.1h415.2C449.3,285.3,448.2,288.8,447.2,292.3z M494.9,218.9L468.2,251
		c-3.5,4.3-6.7,8.9-9.4,13.7H30.2L20,230.5h364c1.7,0,3.3-0.5,4.7-1.4l23.4-15.6h82.8L494.9,218.9L494.9,218.9z"/>
	<path class="st0" d="M59.7,179.3h17.1v17.1H59.7V179.3z"/>
	<path class="st0" d="M93.9,179.3H111v17.1H93.9V179.3z"/>
	<path class="st0" d="M128,179.3h17.1v17.1H128V179.3z"/>
</g>
</svg>
