<?xml version="1.0" encoding="utf-8"?>
<!-- Generator: Adobe Illustrator 25.0.0, SVG Export Plug-In . SVG Version: 6.00 Build 0)  -->
<svg version="1.1" id="Layer_1" xmlns:svgjs="http://svgjs.com/svgjs"
	 xmlns="http://www.w3.org/2000/svg" xmlns:xlink="http://www.w3.org/1999/xlink" x="0px" y="0px" viewBox="0 0 512 429.7"
	 enable-background="new 0 0 512 429.7" xml:space="preserve">
<g>
	<g>
		<g>
			<g>
				<path fill="#FFFFFF" d="M375,186.5v86.9L319.6,243v-56.5H375 M387,174.5h-79.3v75.6l79.3,43.5V174.5L387,174.5z"/>
			</g>
			<g>
				<path fill="#FFFFFF" d="M319.6,352.1l55.3,30.3v6.8h-55.3V352.1 M307.6,331.9v69.4H387v-25.9L307.6,331.9L307.6,331.9z"/>
			</g>
			<g>
				<path fill="#FFFFFF" d="M245,106.1v96.1l-55.3-30.3v-65.7H245 M257,94.1h-79.3v84.9l79.3,43.5V94.1L257,94.1z"/>
			</g>
			<g>
				<path fill="#FFFFFF" d="M189.7,280.9l55.3,30.3v78h-55.3V280.9 M177.7,260.7v140.6H257v-97.1L177.7,260.7L177.7,260.7z"/>
			</g>
			<g>
				<path fill="#FFFFFF" d="M56,207.6l55.3,30.3v151.3H56V207.6 M44,187.4v213.9h79.3V230.9L44,187.4L44,187.4z"/>
			</g>
			<g>
				<path fill="#FFFFFF" d="M111.3,12v116.9L56,98.6V12H111.3 M123.3,0H44v105.7l79.3,43.5V0L123.3,0z"/>
			</g>
			<g>
				<path fill="#FFFFFF" d="M12,121l427.6,236.1l10.3,5.7l5.9-10.2l15.1-26l25.2,67.7l-71,17.3l14.5-27.8l5.4-10.4l-10.2-5.7
					L12,134.5V121 M0,100.7v40.9l428.8,236.8l-26.7,51.3L512,402.8l-38.7-104.2l-27.8,48L0,100.7L0,100.7z"/>
			</g>
		</g>
	</g>
</g>
</svg>
