<?xml version="1.0" encoding="utf-8"?>
<!-- Generator: Adobe Illustrator 25.0.0, SVG Export Plug-In . SVG Version: 6.00 Build 0)  -->
<svg version="1.1" id="Layer_1" xmlns:svgjs="http://svgjs.com/svgjs"
	 xmlns="http://www.w3.org/2000/svg" xmlns:xlink="http://www.w3.org/1999/xlink" x="0px" y="0px" viewBox="0 0 512 512"
	 style="enable-background:new 0 0 512 512;" xml:space="preserve">
<style type="text/css">
	.st0{fill:#369DDF;}
</style>
<g>
	<g>
		<g>
			<g>
				<path class="st0" d="M221.9,0H17.1C7.6,0,0,7.6,0,17.1v204.8c0,9.4,7.6,17.1,17.1,17.1h204.8c9.4,0,17.1-7.6,17.1-17.1V17.1
					C238.9,7.6,231.3,0,221.9,0z M204.8,204.8H34.1V34.1h170.7V204.8z"/>
				<path class="st0" d="M494.9,0H290.1c-9.4,0-17.1,7.6-17.1,17.1v204.8c0,9.4,7.6,17.1,17.1,17.1h204.8c9.4,0,17.1-7.6,17.1-17.1
					V17.1C512,7.6,504.4,0,494.9,0z M477.9,204.8H307.2V34.1h170.7V204.8z"/>
				<path class="st0" d="M221.9,273.1H17.1c-9.4,0-17.1,7.6-17.1,17.1v204.8c0,9.4,7.6,17.1,17.1,17.1h204.8
					c9.4,0,17.1-7.6,17.1-17.1V290.1C238.9,280.7,231.3,273.1,221.9,273.1z M204.8,477.9H34.1V307.2h170.7V477.9z"/>
				<path class="st0" d="M494.9,273.1H290.1c-9.4,0-17.1,7.6-17.1,17.1v204.8c0,9.4,7.6,17.1,17.1,17.1h204.8
					c9.4,0,17.1-7.6,17.1-17.1V290.1C512,280.7,504.4,273.1,494.9,273.1z M477.9,477.9H307.2V307.2h170.7V477.9z"/>
			</g>
		</g>
	</g>
</g>
</svg>
