<?xml version="1.0" encoding="utf-8"?>
<!-- Generator: Adobe Illustrator 25.0.1, SVG Export Plug-In . SVG Version: 6.00 Build 0)  -->
<svg version="1.1" id="Layer_1" xmlns:svgjs="http://svgjs.com/svgjs"
	 xmlns="http://www.w3.org/2000/svg" xmlns:xlink="http://www.w3.org/1999/xlink" x="0px" y="0px" viewBox="0 0 512 316"
	 style="enable-background:new 0 0 512 316;" xml:space="preserve">
<style type="text/css">
	.st0{fill:#FFFFFF;}
</style>
<g>
	<path class="st0" d="M-420.4,208.7h36.8v-36.8h-36.8V208.7z"/>
	<path class="st0" d="M-291.6,116.7h-36.8v36.8h36.8V116.7z"/>
	<path class="st0" d="M-346.8,116.7h-36.8v36.8h36.8V116.7z"/>
	<path class="st0" d="M-236.4,116.7h-36.8v36.8h36.8V116.7z"/>
	<path class="st0" d="M-218,171.9h-36.8v36.8h36.8V171.9z"/>
	<path class="st0" d="M-512.4,24.8V34h18.4v-9.2c0-5.1-4.1-9.2-9.2-9.2C-508.3,15.6-512.4,19.7-512.4,24.8z"/>
	<path class="st0" d="M-273.2,171.9H-310v36.8h36.8V171.9z"/>
	<path class="st0" d="M-328.4,171.9h-36.8v36.8h36.8V171.9z"/>
	<path class="st0" d="M-131.4,293.7c1-3.8,2.2-7.6,3.6-11.4h-447.6l5.5,18.4h436.7L-131.4,293.7z"/>
	<path class="st0" d="M-567.6,208.7h128.8v-55.2h-128.8V208.7z M-475.6,171.9h18.4v18.4h-18.4V171.9z M-512.4,171.9h18.4v18.4h-18.4
		V171.9z M-549.2,171.9h18.4v18.4h-18.4V171.9z"/>
	<path class="st0" d="M-80,208.7h-89.2l-25.3,16.9c-1.5,1-3.3,1.5-5.1,1.5H-592l11,36.8h462c3-5.2,6.4-10.1,10.2-14.7l28.8-34.6
		V208.7z"/>
	<path class="st0" d="M-475.6,135.1v-27.6c0-1.8,0.5-3.6,1.5-5.1l8.9-13.3h-76l8.9,13.3c1,1.5,1.5,3.3,1.5,5.1v27.6H-475.6z"/>
	<path class="st0" d="M-569.6,70.7h132.8l4.6-18.4h-142L-569.6,70.7z"/>
</g>
<path class="st0" d="M85.3,24.7v13.5H73.6V24.7c0-3.2,2.6-5.8,5.8-5.8S85.3,21.5,85.3,24.7z M118.4,185.7v-85.1H40.4v85.1H118.4z
	 M25.8,62.3v17.5c0,1.3,0.8,2.3,1.7,2.3h103.9c0.9,0,1.7-1,1.7-2.3V62.3c0-1.3-0.8-2.3-1.7-2.3H27.5C26.6,60,25.8,61,25.8,62.3z
	 M18.8,210.5c0,0,0,22.9,2.1,45.4h437.8c11-17.6,22.2-40.3,32.6-67.6c1.6-4.2-1.1-8.8-5.6-8.8h-78.9c-6.8,0-17.9,24.7-24.7,24.7
	H23.9C20.6,204.2,18.8,210.5,18.8,210.5z M35,298.8C35,298.8,35,298.8,35,298.8c30.6,0,73.6,0,119.7,0c98.1,0,209.9,0,244.9,0
	c6.8,0,10.7,0,11,0c10.3-0.2,22.6-8.8,35.5-24.9H23.2C25.6,288,29.2,298.8,35,298.8z M453.7,126.3c-3.2,0-5.8,2.6-5.8,5.8v27.3h11.7
	v-27.3C459.6,128.9,456.9,126.3,453.7,126.3z"/>
</svg>
