<?xml version="1.0" encoding="utf-8"?>
<!-- Generator: Adobe Illustrator 25.0.0, SVG Export Plug-In . SVG Version: 6.00 Build 0)  -->
<svg version="1.1" id="Layer_1" xmlns:svgjs="http://svgjs.com/svgjs"
	 xmlns="http://www.w3.org/2000/svg" xmlns:xlink="http://www.w3.org/1999/xlink" x="0px" y="0px" viewBox="0 0 512 440"
	 style="enable-background:new 0 0 512 440;" xml:space="preserve">
<style type="text/css">
	.st0{fill:#FF0000;}
</style>
<g>
	<g>
		<path class="st0" d="M511.7,326.5L428.8,17.4c-0.7-2.6-2.4-4.7-4.7-6.1c-2.3-1.3-5-1.7-7.6-1l-64.8,17.4
			C346.6,11.7,331.5,0,313.7,0c-22.1,0-40,17.9-40,40c0,2.9,0.3,5.7,0.9,8.4l-52.3,14l-126.8-34c-5.3-1.4-10.8,1.7-12.2,7.1
			L0.3,344.6c-1.4,5.3,1.7,10.8,7.1,12.2l172.8,46.3l3,11.4c1.2,4.5,5.2,7.4,9.7,7.4c0.9,0,1.7-0.1,2.6-0.3l26.8-7.2l94.2,25.3
			c0.9,0.2,1.7,0.3,2.6,0.3c4.4,0,8.5-2.9,9.7-7.4l13.5-50.3l162.3-43.5C509.9,337.3,513.1,331.8,511.7,326.5L511.7,326.5z
			 M313.7,20c11,0,20,9,20,20s-9,20-20,20s-20-9-20-20S302.7,20,313.7,20z M22.2,340.1L99.9,50.3l83.7,22.4l-76.1,20.4
			c-2.6,0.7-4.7,2.4-6.1,4.7c-1.3,2.3-1.7,5-1,7.6l73.8,275.4L22.2,340.1z M312,417.7L260.9,404l59-15.8L312,417.7z M200,399.7
			l-77.6-289.8l161.5-43.3c0.6,0.7,1.2,1.3,1.8,1.9l-16.7,29c-2.8,4.8-1.1,10.9,3.7,13.7c1.6,0.9,3.3,1.3,5,1.3c3.5,0,6.8-1.8,8.7-5
			l16.7-29c3.4,0.9,7,1.5,10.7,1.5c19.3,0,35.4-13.7,39.2-31.9l59.3-15.9L489.8,322L200,399.7z"/>
		<path class="st0" d="M392.9,153.9c5.3-1.4,8.5-6.9,7.1-12.2c-1.4-5.3-6.9-8.5-12.2-7.1l-193.2,51.8c-5.3,1.4-8.5,6.9-7.1,12.2
			c1.2,4.5,5.2,7.4,9.7,7.4c0.9,0,1.7-0.1,2.6-0.3L392.9,153.9z"/>
		<path class="st0" d="M404.6,197.3c5.3-1.4,8.5-6.9,7.1-12.2s-6.9-8.5-12.2-7.1l-193.2,51.8c-5.3,1.4-8.5,6.9-7.1,12.2
			c1.2,4.5,5.2,7.4,9.7,7.4c0.9,0,1.7-0.1,2.6-0.3L404.6,197.3z"/>
		<path class="st0" d="M217.9,273.2c-5.3,1.4-8.5,6.9-7.1,12.2c1.2,4.5,5.2,7.4,9.7,7.4c0.9,0,1.7-0.1,2.6-0.3l193.2-51.8
			c5.3-1.4,8.5-6.9,7.1-12.2c-1.4-5.3-6.9-8.5-12.2-7.1L217.9,273.2z"/>
		<path class="st0" d="M326.1,290.8l-96.6,25.9c-5.3,1.4-8.5,6.9-7.1,12.2c1.2,4.5,5.2,7.4,9.7,7.4c0.9,0,1.7-0.1,2.6-0.3l96.6-25.9
			c5.3-1.4,8.5-6.9,7.1-12.2C336.9,292.6,331.4,289.4,326.1,290.8z"/>
	</g>
</g>
</svg>
