<?xml version="1.0" encoding="utf-8"?>
<!-- Generator: Adobe Illustrator 25.0.1, SVG Export Plug-In . SVG Version: 6.00 Build 0)  -->
<svg version="1.1" id="Layer_1" xmlns:svgjs="http://svgjs.com/svgjs"
	 xmlns="http://www.w3.org/2000/svg" xmlns:xlink="http://www.w3.org/1999/xlink" x="0px" y="0px" viewBox="0 0 512 512"
	 style="enable-background:new 0 0 512 512;" xml:space="preserve">
<style type="text/css">
	.st0{fill:#FF0000;}
	.st1{fill:#FFFFFF;}
</style>
<g>
	<g id="_04_Close">
		<path class="st0" d="M410,512H102C45.7,511.9,0.1,466.3,0,410V102C0.1,45.7,45.7,0.1,102,0h308c56.3,0.1,101.9,45.7,102,102v308
			C511.9,466.3,466.3,511.9,410,512z"/>
		<path class="st1" d="M365.8,280.7c-7.8-7.8-20.5-7.8-28.3,0L276,342.3V127.8c0-11-9-20-20-20s-20,9-20,20v214.5l-61.5-61.5
			c-7.8-7.8-20.5-7.8-28.3,0c-7.8,7.8-7.8,20.5,0,28.3l85,85c6.6,6.6,15.5,10.3,24.8,10.3c9.3,0,18.3-3.7,24.8-10.3l85-85
			C373.7,301.2,373.7,288.5,365.8,280.7z"/>
	</g>
</g>
</svg>
