<?xml version="1.0" encoding="utf-8"?>
<!-- Generator: Adobe Illustrator 25.0.0, SVG Export Plug-In . SVG Version: 6.00 Build 0)  -->
<svg version="1.1" id="Layer_1" xmlns:svgjs="http://svgjs.com/svgjs"
	 xmlns="http://www.w3.org/2000/svg" xmlns:xlink="http://www.w3.org/1999/xlink" x="0px" y="0px" viewBox="0 0 512 429.7"
	 enable-background="new 0 0 512 429.7" xml:space="preserve">
<g>
	<g>
		<g>
			<polygon fill="#FFFFFF" points="307.6,174.5 387,174.5 387,293.6 307.6,250.1 			"/>
			<polygon fill="#FFFFFF" points="387,401.2 307.6,401.2 307.6,331.9 387,375.3 			"/>
			<polygon fill="#FFFFFF" points="177.7,94.1 257,94.1 257,222.4 177.7,178.9 			"/>
			<polygon fill="#FFFFFF" points="257,401.2 177.7,401.2 177.7,260.7 257,304.2 			"/>
			<polygon fill="#FFFFFF" points="123.3,401.2 44,401.2 44,187.4 123.3,230.9 			"/>
			<polygon fill="#FFFFFF" points="44,0 123.3,0 123.3,149.1 44,105.7 			"/>
			<polygon fill="#FFFFFF" points="402.2,429.7 428.8,378.4 0,141.6 0,100.7 445.4,346.6 473.3,298.6 512,402.8 			"/>
		</g>
	</g>
</g>
</svg>
