<?xml version="1.0" encoding="utf-8"?>
<!-- Generator: Adobe Illustrator 25.0.1, SVG Export Plug-In . SVG Version: 6.00 Build 0)  -->
<svg version="1.1" id="Layer_1" xmlns:svgjs="http://svgjs.com/svgjs"
	 xmlns="http://www.w3.org/2000/svg" xmlns:xlink="http://www.w3.org/1999/xlink" x="0px" y="0px" viewBox="0 0 512 316"
	 style="enable-background:new 0 0 512 316;" xml:space="preserve">
<style type="text/css">
	.st0{fill:#FFFFFF;}
</style>
<g>
	<path class="st0" d="M-151.5,196.4h-17.1v-17.1c0-4.7-3.8-8.5-8.5-8.5s-8.5,3.8-8.5,8.5v17.1h-17.1v-8.5c0-4.7-3.8-8.5-8.5-8.5
		s-8.5,3.8-8.5,8.5v8.5h-25.6c-1.7,0-3.3,0.5-4.7,1.4l-21,13.9v-41c0-4.7-3.8-8.5-8.5-8.5h-8.5v-42.7c0-4.7-3.8-8.5-8.5-8.5h-153.7
		c-4.7,0-8.5,3.8-8.5,8.5v42.7h-17.1v-8.5c0-4.7-3.8-8.5-8.5-8.5h-25.6v-23l13.1-19.6h12.5c3.9,0,7.3-2.7,8.3-6.5l8.5-34.1
		c0.6-2.5,0.1-5.3-1.5-7.3c-1.6-2.1-4.1-3.3-6.7-3.3H-527V43c0-10.8-6.9-20.4-17.1-24V8.6c0-4.7-3.8-8.5-8.5-8.5
		c-4.7,0-8.5,3.8-8.5,8.5v10.1c-10.2,3.6-17,13.2-17.1,24v8.5h-51.2c-2.6,0-5.1,1.2-6.7,3.3c-1.6,2.1-2.2,4.8-1.5,7.3l8.5,34.1
		c0.9,3.8,4.4,6.5,8.3,6.5h12.5l13,19.7v23h-25.6c-4.7,0-8.5,3.8-8.5,8.5v59.7h-17.1c-2.7,0-5.2,1.3-6.8,3.4c-1.6,2.2-2.1,5-1.3,7.5
		l25.6,85.6c1.1,3.6,4.4,6.1,8.2,6.1h418.1c3.9,0,7.3-2.7,8.3-6.5l3.2-13c3.2-12.7,9.1-24.5,17.5-34.5l28.7-34.4
		c1.3-1.5,2-3.5,2-5.5v-17.1C-143,200.3-146.8,196.4-151.5,196.4z M-288.1,179.3v34.1h-34.1v-34.1L-288.1,179.3L-288.1,179.3z
		 M-339.3,128.1h34.1v34.1h-34.1V128.1z M-339.3,179.3v34.1h-34.1v-34.1L-339.3,179.3L-339.3,179.3z M-390.5,128.1h34.1v34.1h-34.1
		V128.1z M-390.5,179.3v34.1h-34.1v-34.1L-390.5,179.3L-390.5,179.3z M-441.7,128.1h34.1v34.1h-34.1V128.1L-441.7,128.1z
		 M-475.8,179.3h34.1v34.1h-34.1L-475.8,179.3L-475.8,179.3z M-561.1,42.8c0-4.7,3.8-8.5,8.5-8.5c4.7,0,8.5,3.8,8.5,8.5v8.5h-17
		V42.8z M-614.2,85.4l-4.3-17.1h131.7l-4.2,17.1H-614.2z M-579.6,114.8l-8.2-12.3h70.5l-8.2,12.3c-0.9,1.4-1.4,3.1-1.4,4.7v25.6
		h-51.3v-25.6C-578.2,117.9-578.7,116.2-579.6,114.8z M-612.3,162.3h119.5v51.2h-119.5V162.3z M-207.8,292.3l-1.6,6.5h-405.1
		l-5.1-17.1h415.2C-205.7,285.3-206.8,288.8-207.8,292.3z M-160.1,218.9l-26.7,32.1c-3.5,4.3-6.7,8.9-9.4,13.7h-428.6l-10.2-34.2
		h364c1.7,0,3.3-0.5,4.7-1.4l23.4-15.6h82.8L-160.1,218.9L-160.1,218.9z"/>
	<path class="st0" d="M-595.3,179.3h17.1v17.1h-17.1V179.3z"/>
	<path class="st0" d="M-561.1,179.3h17.1v17.1h-17.1V179.3z"/>
	<path class="st0" d="M-527,179.3h17.1v17.1H-527V179.3z"/>
</g>
<path class="st0" d="M505.4,171.8c-4.5-6.5-11.8-10.3-19.7-10.3h-8.1v-2v-27.3c0-13.1-10.7-23.8-23.8-23.8
	c-13.1,0-23.8,10.7-23.8,23.8v27.3v2h-23c-10.2,0-16.9,7.3-19.1,9.8c-2.8,3.1-5.3,6.6-7.8,10c-1,1.4-2.4,3.3-3.6,4.9H136.4v-0.5
	v-85.1v-1.2C144.8,97,151,89.1,151,79.8V62.3c0-11.2-8.8-20.3-19.7-20.3h-28.1v-3.8V24.7c0-13.1-10.7-23.8-23.8-23.8
	S55.6,11.6,55.6,24.7v13.5V42H27.5C16.6,42,7.8,51.1,7.8,62.3v17.5c0,9.4,6.2,17.2,14.6,19.6v1.2v85.1v0.6
	c-9.7,0.7-17.7,7.9-20.9,19.3L0.8,208l0,2.5c0,0.8,0,19.4,1.6,39.9c3.2,41.2,9.9,53.1,16.1,59.3c4.6,4.6,10.4,7.1,16.5,7.1
	c27.2,0,67.5,0,119.7,0c61.4,0,128.2,0,178.1,0c29.8,0,53.7,0,66.7,0c10.8,0,11,0,11.3,0c17.3-0.3,35.1-12.5,52.8-36.3
	c15.7-21,31-50.6,44.4-85.8C511,187,510,178.5,505.4,171.8z M447.9,132.2c0-3.2,2.6-5.8,5.8-5.8s5.8,2.6,5.8,5.8v27.3h-11.7V132.2z
	 M73.6,24.7c0-3.2,2.6-5.8,5.8-5.8s5.8,2.6,5.8,5.8v13.5H73.6V24.7z M40.4,100.6h78.1v85.1H40.4V100.6z M25.8,62.3
	c0-1.3,0.8-2.3,1.7-2.3h103.9c0.9,0,1.7,1,1.7,2.3v17.5c0,1.3-0.8,2.3-1.7,2.3H27.5c-0.9,0-1.7-1-1.7-2.3V62.3z M410.6,298.8
	c-0.3,0-4.2,0-11,0c-35,0-146.8,0-244.9,0c-46.1,0-89.1,0-119.7,0c0,0,0,0,0,0c-5.7,0-9.4-10.8-11.8-24.9H446
	C433.2,290,420.9,298.6,410.6,298.8z M491.3,188.3c-10.4,27.3-21.5,50-32.6,67.6H20.9c-2.1-22.5-2.1-45.4-2.1-45.4s1.8-6.3,5.1-6.3
	h358.2c6.8,0,17.9-24.7,24.7-24.7h78.9C490.2,179.5,492.9,184.1,491.3,188.3z"/>
</svg>
