<?xml version="1.0" encoding="utf-8"?>
<!-- Generator: Adobe Illustrator 25.0.0, SVG Export Plug-In . SVG Version: 6.00 Build 0)  -->
<svg version="1.1" id="Layer_1" xmlns="http://www.w3.org/2000/svg" xmlns:xlink="http://www.w3.org/1999/xlink" x="0px" y="0px"
	 viewBox="0 0 1536.6 568" style="enable-background:new 0 0 1536.6 568;" xml:space="preserve">
<style type="text/css">
	.st0{fill:#2DAB66;}
</style>
<g>
	<g>
		<path class="st0" d="M631.1,328.3h59.8v2.3c0,8.4,2.2,14.3,6.7,17.6c4.5,3.3,12.4,5,23.7,5h15.6c9.5,0,16.1-1.3,19.9-3.8
			c3.8-2.5,5.7-7,5.7-13.5v-10.1c0-5.5-1.5-9.5-4.5-11.9s-9.8-4.2-20.4-5.5l-50.6-5.5c-18.8-2.1-32.6-8-41.3-17.7
			c-8.7-9.7-13-24.2-13-43.3v-14.4c0-10.8,1.7-20.5,5.2-29c3.4-8.5,8.4-15.4,15-20.8c5.6-4.7,12.4-8,20.4-9.9c8-1.9,20-2.9,35.9-2.9
			h37.3c23.2,0,40.9,4.7,53.2,14c12.3,9.4,18.4,22.9,18.4,40.6v15.9h-59.8v-2.3c0-7-1.6-11.8-4.9-14.5c-3.3-2.7-9.2-4.1-17.7-4.1
			h-14.4c-9.9,0-16.7,1.2-20.4,3.5s-5.5,6.4-5.5,12.1v9.7c0,8.5,8.4,13.7,25.1,15.6l46,5.2c19.9,2.3,34.7,8.1,44.5,17.4
			s14.7,22.4,14.7,39.3v22.3c0,19.3-6,34.7-18,46.2c-12,11.6-28,17.3-48.2,17.3h-50.7c-27.2,0-46.9-4.7-59.2-14
			c-12.3-9.4-18.5-24.2-18.5-44.6V328.3z"/>
		<path class="st0" d="M985,350c-1.2,18.6-6.9,32-17,40.2s-26,12.3-47.6,12.3h-22c-24,0-40.9-5-50.6-15c-9.7-10-14.6-27.5-14.6-52.4
			v-34c0-24.9,4.9-42.3,14.6-52.4c9.7-10,26.6-15.1,50.6-15.1h22c24,0,40.9,5,50.6,15.1c9.7,10,14.6,27.5,14.6,52.4V327h-100v20.1
			c0,7.4,1.5,12.6,4.6,15.6s8.5,4.5,16.2,4.5h6.7c7.2,0,12.2-1.2,15.1-3.7c2.9-2.5,4.7-7,5.3-13.6H985V350z M885.6,299.6h48.9v-5.8
			c0-10.9-1.4-18.2-4.3-21.8c-2.9-3.6-8.5-5.4-16.8-5.4h-6.7c-8.1,0-13.7,1.7-16.6,5.2c-3,3.5-4.4,10.3-4.4,20.4v7.4H885.6z"/>
		<path class="st0" d="M1000,277.7c0.2-15.7,4.6-27,13.1-33.8s22.7-10.2,42.6-10.2h24.8c23.1,0,39.5,4.1,49.2,12.3
			s14.5,22.1,14.5,41.7v112.5h-52.4v-15c-4.4,5.8-9.6,10.1-15.6,13c-6,2.8-13.1,4.2-21.1,4.2h-18.9c-14,0-24.9-4-32.5-11.9
			s-11.4-19.2-11.4-33.9v-15.3c0-14.2,4.3-25,13-32.6c8.6-7.6,21-11.4,37-11.4h14.4c7.5,0,14.3,1.3,20.3,3.8c6,2.6,11,6.3,14.8,11.2
			v-32c0-5.1-1.1-8.8-3.4-11c-2.2-2.2-5.9-3.4-11-3.4h-8.9c-6.3,0-10.7,0.9-13,2.6s-3.4,4.8-3.4,9.3L1000,277.7z M1061.5,366.7h14.4
			c5.2,0,9.1-1.2,11.7-3.6s3.9-6,3.9-10.8v-8.6c0-4.9-1.3-8.5-3.9-10.9s-6.5-3.6-11.7-3.6h-14.4c-5.3,0-9.3,1.2-12,3.7
			c-2.7,2.4-4.1,6.1-4.1,10.8v8.6c0,4.8,1.4,8.4,4.1,10.8S1056.2,366.7,1061.5,366.7z"/>
		<path class="st0" d="M1156.3,321.9h58.8v11.2c0,8.1,2.1,13.9,6.3,17.4c4.2,3.5,11.3,5.2,21.1,5.2h10.8c9.3,0,16.1-1.7,20.5-5.2
			c4.4-3.4,6.6-8.7,6.6-15.9v-8.5c0-7.5-2.1-12.9-6.4-16.3s-11.2-5.1-20.8-5.1H1234v-46.6h18.6c8.4,0,14.7-1.7,18.8-5.1
			c4.1-3.4,6.2-8.5,6.2-15.4v-6.1c0-6.8-2-11.8-6-15s-10.2-4.8-18.7-4.8h-9.8c-9,0-15.4,1.8-19.2,5.3c-3.9,3.5-5.8,9.3-5.8,17.3v8
			H1160v-15.6c0-19.9,6.6-35.1,19.7-45.7s31.9-15.9,56.5-15.9h25.3c24.9,0,43.8,4.9,56.7,14.8c12.9,9.9,19.4,24.4,19.4,43.5v15.1
			c0,11.1-2.9,20.2-8.7,27.1c-5.8,6.9-14.5,11.6-26.1,14.1c13.3,3.6,23,9.2,29.1,16.8c6.1,7.5,9.1,17.7,9.1,30.5v17.3
			c0,18.5-6.6,32.9-19.7,43.2c-13.2,10.3-31.6,15.5-55.3,15.5h-35.1c-23.2,0-41.4-5.3-54.6-16s-19.8-25.4-19.8-44.1v-21H1156.3z"/>
		<path class="st0" d="M1348.8,400.2V167.8h93.7c35.8,0,60.4,4.7,73.7,14.1c13.3,9.4,20,25.9,20,49.6v18.7c0,15.7-3.8,28-11.4,36.9
			s-18.8,14.3-33.7,16.2c15.7,2.6,27.2,7.8,34.3,15.6c7.2,7.8,10.8,18.9,10.8,33.4v47.9h-63.7v-41.8c0-9.9-1.9-16.7-5.7-20.4
			c-3.8-3.7-10.8-5.5-21.1-5.5h-34.5v67.7L1348.8,400.2L1348.8,400.2z M1411.1,280.1h34.8c10.4,0,17.5-1.8,21.2-5.5
			c3.7-3.6,5.6-10.4,5.6-20.1v-8.9c0-9.9-1.9-16.7-5.7-20.4c-3.8-3.7-10.8-5.5-21.1-5.5h-34.8V280.1z"/>
	</g>
</g>
<g>
	<path class="st0" d="M417.2,514.6c1.3-0.8,1.8-2.5,1-3.8s-2.5-1.8-3.8-1s-1.8,2.5-1,3.8c0.5,0.9,1.5,1.4,2.4,1.4
		C416.3,515,416.8,514.9,417.2,514.6z"/>
	<path class="st0" d="M547.5,281.3c-1.5,0-2.8,1.3-2.8,2.8c0,1.6,1.3,2.8,2.8,2.8c1.6,0,2.8-1.2,2.8-2.8
		C550.4,282.5,549.1,281.3,547.5,281.3z"/>
	<path class="st0" d="M528.8,352.5c0.2,0.1,0.5,0.1,0.7,0.1c1.2,0,2.4-0.8,2.7-2.1c0.4-1.5-0.5-3-2-3.4s-3,0.5-3.4,2
		C526.4,350.6,527.3,352.1,528.8,352.5z"/>
	<path class="st0" d="M521.1,344.7c-1.5-0.4-3,0.5-3.4,2s0.5,3,2,3.4c0.2,0.1,0.5,0.1,0.7,0.1c1.2,0,2.4-0.8,2.7-2.1
		C523.5,346.6,522.6,345.1,521.1,344.7z"/>
	<path class="st0" d="M541.3,215.2c-0.4-1.5-1.9-2.4-3.4-2s-2.4,1.9-2,3.4c0.3,1.3,1.5,2.1,2.7,2.1c0.2,0,0.5,0,0.7-0.1
		C540.8,218.2,541.7,216.7,541.3,215.2z"/>
	<path class="st0" d="M510.6,220.5c-1.5,0.4-2.4,1.9-2,3.4c0.3,1.3,1.5,2.1,2.7,2.1c0.2,0,0.5,0,0.7-0.1c1.5-0.4,2.4-1.9,2-3.4
		S512.1,220.1,510.6,220.5z"/>
	<path class="st0" d="M537.9,355c0.2,0.1,0.5,0.1,0.7,0.1c1.2,0,2.4-0.8,2.7-2.1c0.4-1.5-0.5-3-2-3.4s-3,0.5-3.4,2
		C535.5,353,536.4,354.5,537.9,355z"/>
	<path class="st0" d="M523.1,220c-0.4-1.5-1.9-2.4-3.4-2s-2.4,1.9-2,3.4c0.3,1.2,1.5,2.1,2.7,2.1c0.2,0,0.5,0,0.7-0.1
		C522.6,223.1,523.5,221.5,523.1,220z"/>
	<path class="st0" d="M519.3,286.9c1.6,0,2.8-1.2,2.8-2.8c0-1.5-1.3-2.8-2.8-2.8s-2.8,1.3-2.8,2.8S517.8,286.9,519.3,286.9z"/>
	<path class="st0" d="M532.2,217.6c-0.4-1.5-1.9-2.4-3.4-2s-2.4,1.9-2,3.4c0.3,1.2,1.5,2.1,2.7,2.1c0.2,0,0.5,0,0.7-0.1
		C531.7,220.6,532.6,219.1,532.2,217.6z"/>
	<path class="st0" d="M531.5,284.1c0-1.5-1.3-2.8-2.8-2.8s-2.8,1.3-2.8,2.8c0,1.6,1.3,2.8,2.8,2.8
		C530.3,286.9,531.5,285.6,531.5,284.1z"/>
	<path class="st0" d="M538.1,286.9c1.6,0,2.8-1.2,2.8-2.8c0-1.5-1.3-2.8-2.8-2.8s-2.8,1.3-2.8,2.8S536.6,286.9,538.1,286.9z"/>
	<path class="st0" d="M36,350.5c0.3,1.3,1.5,2.1,2.7,2.1c0.2,0,0.5,0,0.7-0.1c1.5-0.4,2.4-1.9,2-3.4s-1.9-2.4-3.4-2
		S35.7,349,36,350.5z"/>
	<path class="st0" d="M160.4,69.8c-1.3,0.8-1.8,2.5-1,3.8c0.5,0.9,1.5,1.4,2.4,1.4c0.5,0,1-0.1,1.4-0.4c1.3-0.8,1.8-2.5,1-3.8
		C163.5,69.5,161.8,69,160.4,69.8z"/>
	<path class="st0" d="M155.7,61.6c-1.3,0.8-1.8,2.5-1,3.8c0.5,0.9,1.5,1.4,2.4,1.4c0.5,0,1-0.1,1.4-0.4c1.3-0.8,1.8-2.5,1-3.8
		C158.8,61.3,157.1,60.9,155.7,61.6z"/>
	<path class="st0" d="M166.5,83.2c0.5,0,1-0.1,1.4-0.4c1.3-0.8,1.8-2.5,1-3.8s-2.5-1.8-3.8-1s-1.8,2.5-1,3.8
		C164.6,82.7,165.6,83.2,166.5,83.2z"/>
	<path class="st0" d="M119.8,119.7c1.1-1.1,1.1-2.9,0-4s-2.9-1.1-4,0s-1.1,2.9,0,4c0.5,0.6,1.3,0.8,2,0.8S119.2,120.3,119.8,119.7z"
		/>
	<path class="st0" d="M97.8,473.1c0.7,0,1.4-0.3,2-0.8c1.1-1.1,1.1-2.9,0-4s-2.9-1.1-4,0s-1.1,2.9,0,4
		C96.4,472.9,97.1,473.1,97.8,473.1z"/>
	<path class="st0" d="M220.5,57.6c0.3,1.2,1.5,2.1,2.7,2.1c0.2,0,0.5,0,0.7-0.1c1.5-0.4,2.4-1.9,2-3.4s-1.9-2.4-3.4-2
		S220.1,56.1,220.5,57.6z"/>
	<path class="st0" d="M217.6,36c-1.5,0.4-2.4,1.9-2,3.4c0.3,1.2,1.5,2.1,2.7,2.1c0.2,0,0.5,0,0.7-0.1c1.5-0.4,2.4-1.9,2-3.4
		C220.7,36.5,219.1,35.6,217.6,36z"/>
	<path class="st0" d="M220.1,45.1c-1.5,0.4-2.4,1.9-2,3.4c0.3,1.2,1.5,2.1,2.7,2.1c0.2,0,0.5,0,0.7-0.1c1.5-0.4,2.4-1.9,2-3.4
		S221.6,44.7,220.1,45.1z"/>
	<path class="st0" d="M173.7,87.1c-0.8-1.3-2.5-1.8-3.8-1s-1.8,2.5-1,3.8c0.5,0.9,1.5,1.4,2.4,1.4h0.1c0.7-0.4,1.5-0.8,2.2-1.3
		C174.1,89.2,174.2,88.1,173.7,87.1z"/>
	<path class="st0" d="M115.8,448.4c-1.1,1.1-1.1,2.9,0,4c0.5,0.6,1.3,0.8,2,0.8s1.4-0.3,2-0.8c1.1-1.1,1.1-2.9,0-4
		C118.7,447.3,116.9,447.3,115.8,448.4z"/>
	<path class="st0" d="M109.2,455c-1.1,1.1-1.1,2.9,0,4c0.6,0.5,1.3,0.8,2,0.8s1.4-0.3,2-0.8c1.1-1.1,1.1-2.9,0-4
		C112,454,110.3,454,109.2,455z"/>
	<path class="st0" d="M102.5,461.7c-1.1,1.1-1.1,2.9,0,4c0.5,0.6,1.3,0.8,2,0.8s1.4-0.3,2-0.8c1.1-1.1,1.1-2.9,0-4
		S103.6,460.6,102.5,461.7z"/>
	<path class="st0" d="M58.3,286.9c1.1,0,2-0.6,2.5-1.6c0-0.8,0-1.7,0-2.5c-0.5-0.9-1.4-1.6-2.5-1.6c-1.6,0-2.8,1.3-2.8,2.8
		C55.5,285.6,56.8,286.9,58.3,286.9z"/>
	<path class="st0" d="M215.2,26.9c-1.5,0.4-2.4,1.9-2,3.4c0.3,1.3,1.5,2.1,2.7,2.1c0.2,0,0.5,0,0.7-0.1c1.5-0.4,2.4-1.9,2-3.4
		S216.7,26.5,215.2,26.9z"/>
	<path class="st0" d="M99.8,99.8c1.1-1.1,1.1-2.9,0-4s-2.9-1.1-4,0s-1.1,2.9,0,4c0.6,0.6,1.3,0.8,2,0.8
		C98.6,100.6,99.3,100.3,99.8,99.8z"/>
	<path class="st0" d="M113.1,113.1c1.1-1.1,1.1-2.9,0-4s-2.9-1.1-4,0s-1.1,2.9,0,4c0.6,0.6,1.3,0.8,2,0.8
		C111.9,113.9,112.6,113.6,113.1,113.1z"/>
	<path class="st0" d="M106.5,106.4c1.1-1.1,1.1-2.9,0-4s-2.9-1.1-4,0s-1.1,2.9,0,4c0.6,0.5,1.3,0.8,2,0.8S105.9,107,106.5,106.4z"/>
	<path class="st0" d="M66.7,222.9c-1.5-0.4-3,0.5-3.4,2s0.5,3,2,3.4c0.2,0.1,0.5,0.1,0.7,0.1c0.8,0,1.5-0.3,2-0.9
		c0.2-0.8,0.5-1.7,0.7-2.5C68.5,224,67.8,223.2,66.7,222.9z"/>
	<path class="st0" d="M125.3,441.1c-1-0.3-2.1-0.1-2.8,0.7c-1.1,1.1-1.1,2.9,0,4c0.6,0.5,1.3,0.8,2,0.8s1.4-0.3,2-0.8
		c0.8-0.8,1-1.9,0.7-2.9C126.5,442.3,125.9,441.7,125.3,441.1z"/>
	<path class="st0" d="M59.6,223.9c0.4-1.5-0.5-3-2-3.4s-3,0.5-3.4,2s0.5,3,2,3.4c0.2,0.1,0.5,0.1,0.7,0.1
		C58.2,226,59.3,225.2,59.6,223.9z"/>
	<path class="st0" d="M160.4,498.3c0.4,0.3,0.9,0.4,1.4,0.4c1,0,1.9-0.5,2.4-1.4c0.8-1.3,0.3-3.1-1-3.8c-1.3-0.8-3.1-0.3-3.8,1
		C158.6,495.8,159.1,497.6,160.4,498.3z"/>
	<path class="st0" d="M155.7,506.5c0.4,0.3,0.9,0.4,1.4,0.4c1,0,1.9-0.5,2.4-1.4c0.8-1.3,0.3-3.1-1-3.8c-1.3-0.8-3.1-0.3-3.8,1
		C153.9,504,154.4,505.7,155.7,506.5z"/>
	<path class="st0" d="M66,345.3c0.2,0,0.5,0,0.7-0.1c1.1-0.3,1.9-1.2,2-2.2c-0.2-0.8-0.4-1.5-0.6-2.3c-0.7-0.8-1.8-1.2-2.9-0.9
		c-1.5,0.4-2.4,1.9-2,3.4C63.6,344.5,64.8,345.3,66,345.3z"/>
	<path class="st0" d="M151,514.6c0.4,0.3,0.9,0.4,1.4,0.4c1,0,1.9-0.5,2.4-1.4c0.8-1.3,0.3-3.1-1-3.8c-1.3-0.8-3.1-0.3-3.8,1
		C149.2,512.1,149.7,513.8,151,514.6z"/>
	<path class="st0" d="M165.1,490.2c0.4,0.3,0.9,0.4,1.4,0.4c1,0,1.9-0.5,2.4-1.4c0.8-1.3,0.3-3.1-1-3.8c-1.3-0.8-3.1-0.3-3.8,1
		C163.3,487.7,163.8,489.4,165.1,490.2z"/>
	<path class="st0" d="M459.1,113.1c1.1-1.1,1.1-2.9,0-4s-2.9-1.1-4,0s-1.1,2.9,0,4c0.6,0.5,1.3,0.8,2,0.8
		C457.8,113.9,458.5,113.6,459.1,113.1z"/>
	<path class="st0" d="M452.4,119.7c1.1-1.1,1.1-2.9,0-4s-2.9-1.1-4,0s-1.1,2.9,0,4c0.5,0.6,1.3,0.8,2,0.8S451.9,120.3,452.4,119.7z"
		/>
	<path class="st0" d="M501.5,222.9c-1.1,0.3-1.9,1.2-2,2.2c0.2,0.8,0.4,1.5,0.6,2.3c0.5,0.6,1.3,1,2.1,1c0.2,0,0.5,0,0.7-0.1
		c1.5-0.4,2.4-1.9,2-3.4C504.5,223.4,503,222.5,501.5,222.9z"/>
	<path class="st0" d="M445.8,126.4c1.1-1.1,1.1-2.9,0-4s-2.9-1.1-4,0c-0.8,0.8-1,1.9-0.7,2.8c0.6,0.6,1.2,1.2,1.8,1.8
		c0.3,0.1,0.6,0.1,0.8,0.1C444.5,127.2,445.2,126.9,445.8,126.4z"/>
	<path class="st0" d="M412.5,61.7c-1.3-0.8-3-0.3-3.8,1s-0.3,3.1,1,3.8c0.4,0.3,0.9,0.4,1.4,0.4c1,0,1.9-0.5,2.4-1.4
		C414.3,64.1,413.9,62.4,412.5,61.7z"/>
	<path class="st0" d="M344.7,47.1c-0.4,1.5,0.5,3,2,3.4c0.2,0.1,0.5,0.1,0.7,0.1c1.2,0,2.4-0.8,2.7-2.1c0.4-1.5-0.5-3-2-3.4
		C346.7,44.7,345.1,45.6,344.7,47.1z"/>
	<path class="st0" d="M342.3,56.1c-0.4,1.5,0.5,3,2,3.4c0.2,0.1,0.5,0.1,0.7,0.1c1.2,0,2.4-0.8,2.7-2.1c0.4-1.5-0.5-3-2-3.4
		C344.2,53.8,342.7,54.6,342.3,56.1z"/>
	<path class="st0" d="M397,91.3c1,0,1.9-0.5,2.4-1.4c0.8-1.3,0.3-3.1-1-3.8c-1.3-0.8-3.1-0.3-3.8,1c-0.6,1-0.5,2.1,0.1,3
		c0.7,0.4,1.4,0.8,2.1,1.2C396.9,91.3,396.9,91.3,397,91.3z"/>
	<path class="st0" d="M351.6,32.3c0.2,0.1,0.5,0.1,0.7,0.1c1.2,0,2.4-0.8,2.7-2.1c0.4-1.5-0.5-3-2-3.4s-3,0.5-3.4,2
		C349.2,30.4,350.1,31.9,351.6,32.3z"/>
	<path class="st0" d="M417.2,53.5c-1.3-0.8-3.1-0.3-3.8,1c-0.8,1.3-0.3,3.1,1,3.8c0.4,0.3,0.9,0.4,1.4,0.4c1,0,1.9-0.5,2.4-1.4
		C419,56,418.6,54.3,417.2,53.5z"/>
	<path class="st0" d="M407.8,69.8c-1.3-0.8-3.1-0.3-3.8,1c-0.8,1.3-0.3,3.1,1,3.8c0.4,0.3,0.9,0.4,1.4,0.4c1,0,1.9-0.5,2.4-1.4
		C409.6,72.3,409.2,70.6,407.8,69.8z"/>
	<path class="st0" d="M347.2,38c-0.4,1.5,0.5,3,2,3.4c0.2,0.1,0.5,0.1,0.7,0.1c1.2,0,2.4-0.8,2.7-2.1c0.4-1.5-0.5-3-2-3.4
		C349.1,35.6,347.6,36.5,347.2,38z"/>
	<path class="st0" d="M403.1,77.9c-1.3-0.8-3.1-0.3-3.8,1c-0.8,1.3-0.3,3.1,1,3.8c0.4,0.3,0.9,0.4,1.4,0.4c1,0,1.9-0.5,2.4-1.4
		C404.9,80.4,404.5,78.7,403.1,77.9z"/>
	<path class="st0" d="M127.1,125.3c0.3-1,0.1-2.1-0.7-2.8c-1.1-1.1-2.9-1.1-4,0s-1.1,2.9,0,4c0.6,0.6,1.3,0.8,2,0.8
		c0.3,0,0.6-0.1,0.9-0.1C125.9,126.4,126.5,125.8,127.1,125.3z"/>
	<path class="st0" d="M168.8,478.2c-0.8,1.3-0.3,3.1,1,3.8c0.4,0.3,0.9,0.4,1.4,0.4c1,0,1.9-0.5,2.4-1.4c0.6-1,0.5-2.1-0.1-3
		c-0.7-0.4-1.4-0.8-2.1-1.2C170.4,476.7,169.4,477.2,168.8,478.2z"/>
	<path class="st0" d="M39.5,281.3c-1.6,0-2.8,1.3-2.8,2.8c0,1.6,1.3,2.8,2.8,2.8s2.8-1.2,2.8-2.8S41.1,281.3,39.5,281.3z"/>
	<path class="st0" d="M30.1,286.9c1.5,0,2.8-1.2,2.8-2.8c0-1.5-1.3-2.8-2.8-2.8c-1.6,0-2.8,1.3-2.8,2.8
		C27.3,285.6,28.6,286.9,30.1,286.9z"/>
	<path class="st0" d="M465.7,106.4c1.1-1.1,1.1-2.9,0-4s-2.9-1.1-4,0s-1.1,2.9,0,4c0.5,0.5,1.3,0.8,2,0.8S465.2,107,465.7,106.4z"/>
	<path class="st0" d="M38,221c0.2,0.1,0.5,0.1,0.7,0.1c1.2,0,2.4-0.8,2.7-2.1c0.4-1.5-0.5-3-2-3.4s-3,0.5-3.4,2
		C35.7,219.1,36.5,220.6,38,221z"/>
	<path class="st0" d="M29.7,355c0.2,0,0.5,0,0.7-0.1c1.5-0.4,2.4-1.9,2-3.4s-1.9-2.4-3.4-2s-2.4,1.9-2,3.4
		C27.3,354.2,28.4,355,29.7,355z"/>
	<path class="st0" d="M509.9,281.3c-1.1,0-2,0.6-2.5,1.6c0,0.8,0,1.7,0,2.5c0.5,0.9,1.4,1.6,2.5,1.6c1.5,0,2.8-1.2,2.8-2.8
		C512.7,282.5,511.5,281.3,509.9,281.3z"/>
	<path class="st0" d="M508.6,344.2c-0.4,1.5,0.5,3,2,3.4c0.2,0.1,0.5,0.1,0.7,0.1c1.2,0,2.4-0.8,2.7-2.1c0.4-1.5-0.5-3-2-3.4
		C510.5,341.8,509,342.7,508.6,344.2z"/>
	<path class="st0" d="M345.3,66.7c0.4-1.5-0.5-3-2-3.4s-3,0.5-3.4,2c-0.3,1,0.1,2.1,0.8,2.8c0.8,0.2,1.7,0.4,2.5,0.7
		C344.2,68.5,345,67.7,345.3,66.7z"/>
	<path class="st0" d="M468.4,95.8c-1.1,1.1-1.1,2.9,0,4c0.6,0.6,1.3,0.8,2,0.8s1.4-0.3,2-0.8c1.1-1.1,1.1-2.9,0-4
		C471.3,94.7,469.5,94.7,468.4,95.8z"/>
	<path class="st0" d="M501.5,345.2c0.2,0.1,0.5,0.1,0.7,0.1c1.2,0,2.4-0.8,2.7-2.1c0.4-1.5-0.5-3-2-3.4c-1-0.3-2.1,0.1-2.8,0.8
		c-0.2,0.8-0.5,1.6-0.7,2.5C499.7,344.1,500.4,344.9,501.5,345.2z"/>
	<path class="st0" d="M151,53.5c-1.3,0.8-1.8,2.5-1,3.8c0.5,0.9,1.5,1.4,2.4,1.4c0.5,0,1-0.1,1.4-0.4c1.3-0.8,1.8-2.5,1-3.8
		C154.1,53.2,152.3,52.7,151,53.5z"/>
	<path class="st0" d="M225,63.3c-1.5,0.4-2.4,1.9-2,3.4c0.3,1.1,1.2,1.8,2.2,2c0.8-0.2,1.5-0.4,2.3-0.6c0.8-0.7,1.2-1.8,0.9-2.9
		C228,63.7,226.5,62.9,225,63.3z"/>
	<path class="st0" d="M56.9,347.7c0.2,0,0.5,0,0.7-0.1c1.5-0.4,2.4-1.9,2-3.4s-1.9-2.4-3.4-2s-2.4,1.9-2,3.4
		C54.6,346.9,55.7,347.7,56.9,347.7z"/>
	<path class="st0" d="M45.1,348.1c0.3,1.2,1.5,2.1,2.7,2.1c0.2,0,0.5,0,0.7-0.1c1.5-0.4,2.4-1.9,2-3.4s-1.9-2.4-3.4-2
		S44.7,346.6,45.1,348.1z"/>
	<path class="st0" d="M47.1,223.5c0.2,0.1,0.5,0.1,0.7,0.1c1.2,0,2.4-0.8,2.7-2.1c0.4-1.5-0.5-3-2-3.4s-3,0.5-3.4,2
		C44.7,221.5,45.6,223.1,47.1,223.5z"/>
	<path class="st0" d="M51.7,284.1c0-1.5-1.3-2.8-2.8-2.8c-1.6,0-2.8,1.3-2.8,2.8c0,1.6,1.3,2.8,2.8,2.8
		C50.5,286.9,51.7,285.6,51.7,284.1z"/>
	<path class="st0" d="M223,501.4c-0.4,1.5,0.5,3,2,3.4c0.2,0.1,0.5,0.1,0.7,0.1c1.2,0,2.4-0.8,2.7-2.1c0.3-1-0.1-2.1-0.8-2.8
		c-0.8-0.2-1.7-0.4-2.5-0.7C224.1,499.7,223.3,500.4,223,501.4z"/>
	<path class="st0" d="M20.7,281.3c-1.6,0-2.8,1.3-2.8,2.8c0,1.6,1.3,2.8,2.8,2.8s2.8-1.2,2.8-2.8S22.2,281.3,20.7,281.3z"/>
	<path class="st0" d="M29.7,218.7c1.2,0,2.4-0.8,2.7-2.1c0.4-1.5-0.5-3-2-3.4s-3,0.5-3.4,2s0.5,3,2,3.4
		C29.2,218.7,29.4,218.7,29.7,218.7z"/>
	<path class="st0" d="M339.9,502.9c0.3,1.3,1.5,2.1,2.7,2.1c0.2,0,0.5,0,0.7-0.1c1.5-0.4,2.4-1.9,2-3.4c-0.3-1.1-1.2-1.8-2.2-2
		c-0.8,0.2-1.5,0.4-2.3,0.6C340,500.7,339.6,501.8,339.9,502.9z"/>
	<path class="st0" d="M349.9,532.2c0.2,0,0.5,0,0.7-0.1c1.5-0.4,2.4-1.9,2-3.4s-1.9-2.4-3.4-2s-2.4,1.9-2,3.4
		C347.5,531.4,348.6,532.2,349.9,532.2z"/>
	<path class="st0" d="M352.3,541.3c0.2,0,0.5,0,0.7-0.1c1.5-0.4,2.4-1.9,2-3.4s-1.9-2.4-3.4-2s-2.4,1.9-2,3.4
		C349.9,540.5,351.1,541.3,352.3,541.3z"/>
	<path class="st0" d="M347.7,510.5c-0.4-1.5-1.9-2.4-3.4-2s-2.4,1.9-2,3.4c0.3,1.3,1.5,2.1,2.7,2.1c0.2,0,0.5,0,0.7-0.1
		C347.2,513.6,348.1,512,347.7,510.5z"/>
	<path class="st0" d="M226,512c0.4-1.5-0.5-3-2-3.4s-3,0.5-3.4,2c-0.4,1.5,0.5,3,2,3.4c0.2,0.1,0.5,0.1,0.7,0.1
		C224.5,514.1,225.6,513.2,226,512z"/>
	<path class="st0" d="M223.5,521.1c0.4-1.5-0.5-3-2-3.4s-3,0.5-3.4,2s0.5,3,2,3.4c0.2,0.1,0.5,0.1,0.7,0.1
		C222.1,523.1,223.2,522.3,223.5,521.1z"/>
	<path class="st0" d="M347.4,523.1c0.2,0,0.5,0,0.7-0.1c1.5-0.4,2.4-1.9,2-3.4s-1.9-2.4-3.4-2s-2.4,1.9-2,3.4
		C345.1,522.3,346.2,523.1,347.4,523.1z"/>
	<path class="st0" d="M221.1,530.2c0.4-1.5-0.5-3-2-3.4s-3,0.5-3.4,2s0.5,3,2,3.4c0.2,0.1,0.5,0.1,0.7,0.1
		C219.6,532.2,220.8,531.4,221.1,530.2z"/>
	<path class="st0" d="M216.7,535.8c-1.5-0.4-3,0.5-3.4,2s0.5,3,2,3.4c0.2,0.1,0.5,0.1,0.7,0.1c1.2,0,2.4-0.8,2.7-2.1
		C219.1,537.7,218.2,536.2,216.7,535.8z"/>
	<path class="st0" d="M468.4,468.3c-1.1,1.1-1.1,2.9,0,4c0.6,0.5,1.3,0.8,2,0.8s1.4-0.3,2-0.8c1.1-1.1,1.1-2.9,0-4
		C471.3,467.3,469.5,467.3,468.4,468.3z"/>
	<path class="st0" d="M455.1,455c-1.1,1.1-1.1,2.9,0,4c0.6,0.5,1.3,0.8,2,0.8s1.4-0.3,2-0.8c1.1-1.1,1.1-2.9,0-4
		C458,454,456.2,454,455.1,455z"/>
	<path class="st0" d="M448.5,448.4c-1.1,1.1-1.1,2.9,0,4c0.5,0.6,1.3,0.8,2,0.8s1.4-0.3,2-0.8c1.1-1.1,1.1-2.9,0-4
		C451.3,447.3,449.5,447.3,448.5,448.4z"/>
	<path class="st0" d="M461.8,461.7c-1.1,1.1-1.1,2.9,0,4c0.5,0.6,1.3,0.8,2,0.8s1.4-0.3,2-0.8c1.1-1.1,1.1-2.9,0-4
		C464.6,460.6,462.9,460.6,461.8,461.7z"/>
	<path class="st0" d="M441.1,442.9c-0.3,1-0.1,2.1,0.7,2.8c0.6,0.6,1.3,0.8,2,0.8s1.4-0.3,2-0.8c1.1-1.1,1.1-2.9,0-4
		c-0.8-0.8-1.9-1-2.8-0.7C442.3,441.7,441.7,442.3,441.1,442.9z"/>
	<path class="st0" d="M400.3,485.3c-1.3,0.8-1.8,2.5-1,3.8c0.5,0.9,1.5,1.4,2.4,1.4c0.5,0,1-0.1,1.4-0.4c1.3-0.8,1.8-2.5,1-3.8
		C403.4,485,401.7,484.6,400.3,485.3z"/>
	<path class="st0" d="M411.1,506.9c0.5,0,1-0.1,1.4-0.4c1.3-0.8,1.8-2.5,1-3.8s-2.5-1.8-3.8-1s-1.8,2.5-1,3.8
		C409.2,506.4,410.2,506.9,411.1,506.9z"/>
	<path class="st0" d="M406.4,498.7c0.5,0,1-0.1,1.4-0.4c1.3-0.8,1.8-2.5,1-3.8s-2.5-1.8-3.8-1s-1.8,2.5-1,3.8
		C404.5,498.2,405.5,498.7,406.4,498.7z"/>
	<path class="st0" d="M394.6,481c0.5,0.9,1.5,1.4,2.4,1.4c0.5,0,1-0.1,1.4-0.4c1.3-0.8,1.8-2.5,1-3.8c-0.5-0.9-1.6-1.4-2.6-1.4
		c-0.7,0.4-1.5,0.8-2.2,1.3C394.1,478.9,394,480.1,394.6,481z"/>
</g>
<path class="st0" d="M397.1,93c-35.5-21-74.4-31-112.8-31C208.4,62,134.5,101,93,171.1c-62.4,105.5-27.4,241.7,78.1,304.1
	c35.5,21,74.4,30.9,112.8,30.9c75.9,0,149.9-39,191.3-109.1C537.6,291.5,502.6,155.4,397.1,93z M465.6,391.3
	c-19,32.1-46.2,58.7-78.5,76.7c-28.9,16.1-61.4,25.2-94.4,26.6l-8.5-8.5l-8.5,8.5c-34.7-1.4-68.7-11.4-98.8-29.2
	c-24.5-14.5-45.4-33.3-62.2-56c-16.2-21.9-27.9-46.5-34.7-73c-6.8-26.5-8.4-53.7-4.8-80.7c3.2-23.8,10.4-46.6,21.4-68l15.7-4.2
	l-4.2-15.6c18.6-28.2,43.7-51.6,73.1-68c31.5-17.6,67.1-26.8,103.1-26.8l0,0c37.5,0,74.6,10.2,107.1,29.4
	c24.5,14.5,45.4,33.3,62.2,56c3.1,4.2,6,8.5,8.8,12.9l-4,14.9l14.6,3.9c6.5,13.1,11.6,26.9,15.3,41.3c6.8,26.5,8.4,53.7,4.8,80.7
	C489.3,340.2,480.1,366.8,465.6,391.3z"/>
<g>
	<path class="st0" d="M283.8,531.2c-83.8-0.1-160.8-41.9-206.6-112l6-3.4c8.9,13.6,19.3,26.3,30.9,38c22,22.1,47.7,39.5,76.3,51.6
		c29.6,12.6,61.1,19,93.5,19h0.3c32.3,0,63.7-6.3,93.2-18.7c28.6-12.1,54.3-29.4,76.4-51.4c11.6-11.6,22-24.3,31-37.9l5.9,3.4
		c-45.9,69.9-122.9,111.4-206.6,111.4C284.1,531.2,283.8,531.2,283.8,531.2z M498.7,392.2c2.4-4.8,4.7-9.6,6.7-14.4
		c12.6-29.6,19-61.1,19-93.5s-6.3-63.9-18.7-93.5c-12.1-28.6-29.4-54.3-51.4-76.4S406.6,74.9,378,62.8c-25.3-10.7-52.1-17-79.6-18.6
		v-6.9c62.4,3.5,120.5,30.3,164,75.6c44.5,46.3,69,107.3,68.9,171.5c-0.1,38.7-9.2,77.1-26.6,111.3L498.7,392.2z M63.3,395.1
		C46,360.8,36.9,322.3,37,283.7c0.1-64.3,24.7-125.1,69.4-171.3C150,67.2,208.2,40.7,270.6,37.3v6.9c-27.6,1.5-54.3,7.7-79.7,18.4
		C162.3,74.7,136.6,92,114.5,114S75,161.7,62.9,190.3c-12.6,29.6-19,61.1-19,93.5s6.3,63.9,18.7,93.5c2,4.8,4.2,9.6,6.7,14.4
		L63.3,395.1z"/>
</g>
<path class="st0" d="M106.6,280.8c14.7,0.2,23.4,6.5,28.1,9.9c0.3,0.2,0.6,0.4,0.8,0.6c0,0,0,0,0.1-0.1c-0.1-2.6-0.2-5.2-0.2-7.8
	c0-39.7,15.5-77.1,43.6-105.2s65.4-43.6,105.2-43.6c39.7,0,77.1,15.5,105.2,43.6S433,243.6,433,283.4c0,2.6-0.1,5.2-0.2,7.8
	c0,0,0,0,0.1,0c0.3-0.2,0.6-0.4,0.8-0.6c4.7-3.4,13.4-9.6,28.1-9.9h0.7C461,183.5,381.7,105,284.1,105s-176.9,78.4-178.3,175.7
	L106.6,280.8z"/>
<g>
	<g>
		<path class="st0" d="M135.5,323c9.4,0,14.7-3.5,18.7-6.3c0-0.5,0-1,0-1.5c0-0.1,0-0.2,0-0.2c0.1-5.8,1.2-11.5,3.4-16.8
			c-5.3,1.3-8.8,3.9-11.6,5.9c-3.4,2.4-5.5,3.9-10.4,3.9c-5,0-7-1.5-10.4-3.9c-3.9-2.8-9.2-6.6-18.7-6.8c0.4,5.1,1,10.2,1.8,15.2
			c3.4,0.4,5.3,1.8,8.1,3.8C120.2,319.1,125.7,323,135.5,323z"/>
	</g>
	<g>
		<path class="st0" d="M224.7,419.3c5,0,7,1.5,10.4,3.9c4,2.9,9.4,6.8,19.3,6.8c7.6,0,12.6-2.3,16.3-4.7c-0.2-0.2-0.3-0.5-0.5-0.7
			c-3.1-1.5-11.4-4.6-31-8.8c-11.8-1.7-22.2-3.8-31.5-6.4c-0.8,0.6-1.6,1.1-2.3,1.6c-3.4,2.4-5.5,3.9-10.4,3.9s-7-1.5-10.4-3.9
			c-4-2.9-9.4-6.8-19.3-6.8c-4.3,0-7.7,0.7-10.6,1.8c4.6,4.8,9.5,9.4,14.6,13.7c2.4,0.6,4.1,1.8,6.4,3.5c4,2.9,9.4,6.8,19.3,6.8
			c9.9,0,15.3-3.9,19.3-6.8C217.6,420.7,219.7,419.3,224.7,419.3z"/>
	</g>
	<g>
		<path class="st0" d="M164.1,383.6c-2.6-3.6-4.5-7.5-5.7-11.6c-0.3-0.9-0.5-1.8-0.8-2.6c-5.3,1.3-8.9,3.9-11.7,5.9
			c-3.4,2.4-5.5,3.9-10.4,3.9c-0.7,0-1.3,0-1.8-0.1c3.1,4.9,6.5,9.6,10,14.1c5-1.4,8.4-3.8,11.1-5.7
			C157.9,385.3,159.9,383.8,164.1,383.6z"/>
	</g>
	<g>
		<path class="st0" d="M154.2,352.3c-0.8-5.7-1.2-11.4-1.1-17c-2.9,1.3-5.2,2.9-7.1,4.3c-3.4,2.4-5.5,3.9-10.4,3.9
			c-5,0-7-1.5-10.4-3.9c-2.9-2.1-6.5-4.7-12.1-6c2.1,7.3,4.7,14.3,7.7,21.2c3.5,2,8.2,3.8,14.8,3.8
			C144.9,358.6,150.3,355.1,154.2,352.3z"/>
	</g>
	<g>
		<path class="st0" d="M324.3,446.6c-3.4,2.4-5.5,3.9-10.4,3.9c-5,0-7-1.5-10.4-3.9c-4-2.9-9.4-6.8-19.3-6.8s-15.3,3.9-19.3,6.8
			c-3.4,2.4-5.5,3.9-10.4,3.9c-5,0-7-1.5-10.4-3.9c-4-2.9-9.4-6.8-19.3-6.8c-7.8,0-12.8,2.4-16.5,4.9c19.1,9,40.1,14.7,62.2,16.4
			c1.2-0.8,2.3-1.6,3.3-2.3c3.4-2.4,5.5-3.9,10.4-3.9c5,0,7,1.5,10.4,3.9c1,0.7,2.1,1.5,3.3,2.3c22.1-1.7,43.1-7.4,62.2-16.4
			c-3.7-2.4-8.7-4.9-16.5-4.9C333.7,439.8,328.2,443.7,324.3,446.6z"/>
	</g>
	<g>
		<path class="st0" d="M383.7,410.9c-3.4,2.4-5.5,3.9-10.4,3.9c-5,0-7-1.5-10.5-3.9c-0.7-0.5-1.5-1.1-2.3-1.6
			c-9.2,2.6-19.6,4.8-31.4,6.4c-19.6,4.2-27.9,7.4-31,8.8c-0.2,0.2-0.3,0.5-0.5,0.7c3.7,2.4,8.7,4.7,16.2,4.7
			c9.9,0,15.3-3.9,19.3-6.8c3.4-2.4,5.5-3.9,10.4-3.9c5,0,7,1.5,10.5,3.9c4,2.9,9.4,6.8,19.3,6.8s15.3-3.9,19.3-6.8
			c2.3-1.7,4-2.9,6.5-3.5c5.1-4.3,10-8.9,14.6-13.7c-2.9-1.1-6.3-1.8-10.6-1.8C393.1,404.2,387.7,408.1,383.7,410.9z"/>
	</g>
	<g>
		<path class="st0" d="M432.7,343.5c-5,0-7.1-1.5-10.5-3.9c-1.9-1.4-4.1-3-7-4.3c0,5.6-0.4,11.3-1.2,17c3.9,2.8,9.3,6.3,18.7,6.3
			c6.6,0,11.3-1.8,14.8-3.8c3-6.9,5.6-13.9,7.7-21.2c-5.5,1.3-9.2,3.9-12.1,6C439.8,342.1,437.7,343.5,432.7,343.5z"/>
	</g>
	<g>
		<path class="st0" d="M443.2,303.9c-3.4,2.4-5.5,3.9-10.5,3.9s-7.1-1.5-10.5-3.9c-2.8-2-6.3-4.5-11.6-5.9c2.2,5.4,3.3,11,3.4,16.8
			c0,0.1,0,0.1,0,0.2c0,0.5,0,1,0,1.5c3.9,2.8,9.3,6.3,18.7,6.3c9.9,0,15.3-3.9,19.3-6.8c2.8-2,4.7-3.4,8.1-3.8
			c0.8-5,1.4-10.1,1.8-15.2C452.4,297.3,447.1,301.1,443.2,303.9z"/>
	</g>
	<g>
		<path class="st0" d="M422.3,375.3c-2.8-2-6.4-4.6-11.7-5.9c-0.2,0.9-0.5,1.8-0.8,2.6c-1.2,4.1-3.1,8-5.7,11.6
			c4.2,0.2,6.2,1.6,9.4,3.9c2.7,1.9,6.1,4.4,11.1,5.7c3.6-4.5,6.9-9.3,10-14.1c-0.6,0-1.2,0.1-1.8,0.1
			C427.7,379.2,425.7,377.7,422.3,375.3z"/>
	</g>
</g>
<g>
	<path class="st0" d="M282.9,356.5c0.4,0,0.8,0,1.2,0c0.4,0,0.8,0,1.2,0H282.9z"/>
	<path class="st0" d="M190.2,317.4l45.3-83.2c0.6-1.1,1.3-2.1,2.1-2.9l0.1-0.1c1-1,2.2-1.8,3.5-2.4c0.5-0.2,0.9-0.3,1.3-0.4v-14.1
		c-0.6,0-1.2,0.1-1.8,0.2c-1.8,0.3-3.6,0.7-5.4,1.3c-3.4,1.2-6.5,3-9.2,5.4l-0.1,0.1c-2.1,1.8-3.9,4-5.4,6.3l-45.4,71.8
		c-0.7,1.2-1.4,2.4-1.9,3.6l0,0c0,0.1-0.1,0.1-0.1,0.2s-0.1,0.2-0.1,0.3c-1.7,3.8-2.4,7.7-2.5,11.5v0.1c0,1,0,2,0.1,3c0,0,0,0,0,0.1
		c1.3,13.9,12.4,26.2,28.2,27.1c0,0,62.3,10.8,85.2,11.2c22.9-0.4,85.2-11.2,85.2-11.2c15.7-0.9,26.8-13.2,28.2-27.1c0,0,0,0,0-0.1
		c0.1-1,0.1-2,0.1-3V315c0-3.8-0.8-7.8-2.5-11.5c0-0.1-0.1-0.2-0.1-0.3c0-0.1-0.1-0.1-0.1-0.2l0,0c-0.6-1.2-1.2-2.4-1.9-3.6
		l-45.4-71.8c-1.5-2.4-3.3-4.5-5.4-6.3l-0.1-0.1c-2.7-2.4-5.9-4.2-9.2-5.4c-1.7-0.6-3.5-1.1-5.4-1.3c-0.6-0.1-1.2-0.2-1.8-0.2v14.1
		c0.4,0.1,0.8,0.2,1.3,0.4c1.3,0.6,2.5,1.4,3.6,2.4l0.1,0.1c0.8,0.8,1.4,1.7,2,2.8l45.4,83.4c0.2,0.4,0.4,0.7,0.6,1.1
		c0,0,0.4,1.1,0.5,1.1c0.6,1.6,0.9,3.4,0.9,5.2c0,0.4,0,0.8,0,1v0.5c-0.5,6.1-4.7,12.6-11.6,13l-1,0.1l-1,0.2
		c-16.9,3.4-64.3,12.2-82.2,12.6c-17.9-0.4-65.3-9.3-82.2-12.6l-1-0.2l-1-0.1c-7-0.5-11.1-6.9-11.6-13v-0.5c0-0.3,0-0.7,0-1.1
		c0-1.7,0.3-3.4,0.9-5.1"/>
</g>
<path class="st0" d="M398.7,330.7c-0.1,0.1-0.1,0.3-0.2,0.4c-0.2,0.4-0.4,0.8-0.6,1.2c-0.3,0.5-0.6,1-0.9,1.4
	c-0.2,0.3-0.4,0.6-0.5,0.8c-0.4,0.5-0.7,1-1.1,1.5c-0.2,0.3-0.5,0.6-0.7,0.9l-0.2,0.2c-0.2,0.3-0.5,0.6-0.7,0.8
	c-0.4,0.5-0.8,0.9-1.3,1.3c-0.3,0.3-0.5,0.5-0.8,0.8l-0.2,0.2c-0.2,0.2-0.4,0.3-0.5,0.4c-0.3,0.3-0.6,0.5-0.9,0.8s-0.7,0.6-1.1,0.8
	c-1.7,1.2-3.4,2.3-5.2,3.2c-0.4,0.2-0.8,0.4-1.1,0.5c-0.4,0.2-0.8,0.4-1.2,0.5c-0.3,0.1-0.5,0.2-0.8,0.3c-0.3,0.1-0.6,0.2-0.8,0.3
	c-0.8,0.3-1.8,0.6-2.7,0.8c-0.5,0.1-1.1,0.3-1.5,0.4c-0.5,0.1-1.1,0.2-1.6,0.3c-1,0.1-2,0.2-3,0.3c-4.6,0.8-65.4,11.2-86.9,11.2
	s-82.2-10.4-86.9-11.2c-12.1-0.8-22.4-7.8-27.7-18c-0.5,9.9,0.4,22.3,4.6,36.5c5.7,19.3,39.3,28.2,67.9,32.2
	c18.8,4,42.1,10.2,42.1,16.3c0-6.1,23.3-12.3,42.1-16.3c28.5-4,62.1-12.9,67.8-32.2C398.3,353,399.2,340.6,398.7,330.7z"/>
<path class="st0" d="M352.3,182v4.3c0,0.7-0.7,1.4-1.6,1.4h-9.2c-10.7,0-19.4,7.6-19.4,16.9v23.2H284l0,0h-38v-23.2
	c0-9.3-8.7-16.9-19.4-16.9h-9.2c-0.9,0-1.6-0.6-1.6-1.4V182c0-0.7,0.7-1.4,1.6-1.4H252v-6.4c0-0.6,0.5-1.1,1.1-1.1h26v-10.9
	c0-1,0.8-1.9,1.9-1.9h6.1c1,0,1.9,0.8,1.9,1.9v10.9h27.2c0.6,0,1.1,0.5,1.1,1.1v6.4h33.5C351.6,180.7,352.3,181.3,352.3,182z"/>
<path class="st0" d="M287.4,342.2v-74.8c1-0.9,1.7-2.2,1.7-3.7c0-2.8-2.2-5-5-5s-5,2.2-5,5c0,1.5,0.7,2.8,1.7,3.7v74.8
	c0,1.8,1.5,3.3,3.3,3.3S287.4,344,287.4,342.2z"/>
<g>
	<path class="st0" d="M291.2,269.8v4.9c8.1,0,16.2,0,24.4,0c10.7,0,21.5,0.1,32.2-0.2c-10.7-1.8-21.5-2.9-32.2-3.7
		C307.4,270.3,299.3,270,291.2,269.8z"/>
	<path class="st0" d="M291.2,286.2v4.9c9.2,0,18.4,0.1,27.6,0.2c12,0.1,23.9,0.3,35.8,0.2c-11.9-2-23.9-3.2-35.8-4.1
		C309.6,286.8,300.4,286.4,291.2,286.2z"/>
	<path class="st0" d="M361.5,311c-13.1-2.2-26.3-3.6-39.4-4.5c-10.3-0.7-20.6-1.2-30.9-1.3v4.9c10.3,0,20.6,0.1,30.9,0.3
		C335.2,310.6,348.4,310.9,361.5,311z"/>
	<path class="st0" d="M275.9,260.7c0.8-2.2,2.4-3.9,4.5-4.9c-8.5,0.1-16.9,0.3-25.4,0.9c-9.5,0.7-19.1,1.6-28.6,3.2
		c9.5,0.4,19.1,0.5,28.6,0.6C262,260.7,268.9,260.7,275.9,260.7z"/>
	<path class="st0" d="M277.1,310.1v-5c-11.3,0.1-22.7,0.6-34,1.4c-13.2,0.9-26.3,2.3-39.4,4.5c13.1-0.1,26.3-0.4,39.4-0.6
		C254.4,310.1,265.7,310.1,277.1,310.1z"/>
	<path class="st0" d="M277.1,326.5c-12.7,0.1-25.3,0.6-37.9,1.5c-14.4,1-28.7,2.6-43,5c14.3-0.3,28.7-0.8,43-1.1
		c12.6-0.3,25.3-0.4,37.9-0.4V326.5z"/>
	<path class="st0" d="M287.9,255.8c2.1,1,3.7,2.8,4.4,4.9c6.6,0,13.3,0,19.9,0c9.5-0.1,19.1-0.1,28.6-0.6
		c-9.5-1.6-19.1-2.6-28.6-3.3C304.1,256.2,296,255.9,287.9,255.8z"/>
	<path class="st0" d="M325.3,328c-11.4-0.8-22.8-1.3-34.2-1.5v4.9c11.4,0.1,22.8,0.2,34.2,0.4c14.4,0.3,28.7,0.8,43,1.1
		C354.1,330.6,339.7,329.1,325.3,328z"/>
	<path class="st0" d="M247.1,291.3c10-0.1,20-0.1,30-0.1v-4.9c-10,0.1-20,0.5-30,1.2c-12,0.8-23.9,2.1-35.8,4
		C223.2,291.5,235.1,291.3,247.1,291.3z"/>
	<path class="st0" d="M277.1,274.7v-4.9c-8.7,0.1-17.4,0.4-26,1c-10.7,0.7-21.5,1.8-32.2,3.6c10.7,0.3,21.5,0.3,32.2,0.3
		C259.7,274.7,268.4,274.7,277.1,274.7z"/>
	<path class="st0" d="M284.3,237.8c7.1,0,14.3-0.1,21.4-0.2c7.1-0.2,14.3-0.5,21.4-1.2c-7.1-1.4-14.2-2.2-21.4-2.7
		c-7.1-0.5-14.3-0.8-21.4-0.8s-14.3,0.2-21.4,0.7s-14.3,1.3-21.4,2.6c7.1,0.7,14.2,1,21.4,1.2C270.1,237.7,277.2,237.8,284.3,237.8z
		"/>
	<path class="st0" d="M284,248.1c8.3,0,16.7,0,25-0.1s16.7-0.3,25-0.9c-8.3-1.5-16.7-2.4-25-3s-16.7-0.9-25-0.9s-16.7,0.3-25,0.8
		c-8.3,0.6-16.7,1.5-25,2.9c8.3,0.6,16.7,0.8,25,1C267.3,248,275.6,248,284,248.1z"/>
</g>
<path class="st0" d="M535.5,151.7c70.8,134.1,23.5,301.4-108.9,378.2c-41.2,23.9-86,36.3-130.5,38.1v-16.3
	c7.2-0.3,14.4-0.9,21.6-1.8c35.6-4.5,69.5-15.9,100.7-34.1c31.3-18.1,58.1-41.9,79.6-70.5c20.8-27.7,35.9-58.7,44.9-92.4
	c8.9-33.6,11.3-68.1,7-102.5c-4-31.8-13.6-62.2-28.5-90.7L535.5,151.7z M273.1,551.8c-19.4-0.8-38.8-3.8-57.8-8.8
	c-33.6-8.9-64.7-24-92.4-44.9c-28.6-21.6-52.4-48.4-70.5-79.6s-29.6-65.2-34.1-100.7c-4.3-34.4-2-68.8,7-102.5
	c5.1-19.1,12.1-37.3,21.1-54.6l-14.1-8.1c-43.5,83.4-44.6,186.6,6.1,274C89,514,179.1,564.3,273.1,568V551.8z M57.8,140.7
	c3.9-6.1,8-12,12.3-17.8c21.6-28.6,48.4-52.4,79.6-70.5S215,22.8,250.5,18.3c34.4-4.3,68.8-2,102.5,7s64.7,24,92.4,44.9
	c25.6,19.3,47.2,42.7,64.5,69.8l14.1-8.2C442.7,3.7,274-38.4,141.6,38.4C100.4,62.3,67.4,95,43.7,132.7L57.8,140.7z"/>
<g>
	<path class="st0" d="M90.8,392.6l-39.9,23c0.5,0.9,1,1.9,1.6,2.8c0.4,0.8,0.9,1.5,1.4,2.3l39.9-23L90.8,392.6z"/>
	<path class="st0" d="M283,0c-0.6,0-1.2,0-1.8,0l0,0C281.8,0,282.4,0,283,0z"/>
	<path class="st0" d="M287,0L287,0c-0.1,0-0.3,0-0.4,0C286.8,0,286.9,0,287,0z"/>
	<path class="st0" d="M473.8,397.7l40.5,23.4c1-1.7,2-3.4,2.9-5.1l-40.5-23.4L473.8,397.7z"/>
	<path class="st0" d="M38.4,426.6c-0.5-0.9-1.1-1.9-1.6-2.8l0,0C37.3,424.7,37.8,425.7,38.4,426.6c0.3,0.6,0.7,1.2,1.1,1.8
		C39.1,427.8,38.7,427.2,38.4,426.6z"/>
	<path class="st0" d="M528.4,429.2L528.4,429.2c1-1.7,2-3.4,2.9-5.1l0,0C530.4,425.8,529.4,427.5,528.4,429.2z"/>
	<path class="st0" d="M281.2,16.2v48h5.8v-48C285.1,16.2,283.1,16.2,281.2,16.2z"/>
</g>
</svg>
